<?xml version="1.0" encoding="utf-8"?>
<!-- Generator: Adobe Illustrator 22.0.1, SVG Export Plug-In . SVG Version: 6.00 Build 0)  -->
<svg version="1.0" id="图层_1" xmlns="http://www.w3.org/2000/svg" xmlns:xlink="http://www.w3.org/1999/xlink" x="0px" y="0px"
	 viewBox="0 0 1920 1080" style="enable-background:new 0 0 1920 1080;" xml:space="preserve">
<g>
	<g>
		<defs>
			<rect id="SVGID_1_" x="608" y="239" width="703.9" height="602.9"/>
		</defs>
		<clipPath id="SVGID_2_">
			<use xlink:href="#SVGID_1_"  style="overflow:visible;"/>
		</clipPath>
		<path style="clip-path:url(#SVGID_2_);fill:#A9A9A9;" d="M643.8,412.8h408.3c19.8,0,35.8,17.3,35.8,38.4c0,21.1-16,38.4-35.8,38.4
			H643.8c-19.8,0-35.8-17.3-35.8-38.4C608,430,624,412.8,643.8,412.8L643.8,412.8z M643.8,592h408.3c19.8,0,35.8,17.3,35.8,38.4
			c0,21.1-16,38.4-35.8,38.4H643.8c-19.8,0-35.8-17.3-35.8-38.4C608,609.2,624,592,643.8,592L643.8,592z M646.4,764.8h627.2
			c21.1,0,38.4,17.3,38.4,38.4c0,21.1-17.3,38.4-38.4,38.4H646.4c-21.1,0-38.4-17.3-38.4-38.4C608,782,625.3,764.8,646.4,764.8
			L646.4,764.8z M1132.8,412.8l179.2,128l-179.2,128V412.8z M1273.6,316.8H646.4c-21.1,0-38.4-17.3-38.4-38.4
			c0-21.1,17.3-38.4,38.4-38.4h627.2c21.1,0,38.4,17.3,38.4,38.4C1312,299.5,1294.7,316.8,1273.6,316.8L1273.6,316.8z M1273.6,316.8
			"/>
	</g>
</g>
</svg>
