<?xml version="1.0" encoding="utf-8"?>
<!-- Generator: Adobe Illustrator 22.1.0, SVG Export Plug-In . SVG Version: 6.00 Build 0)  -->
<svg version="1.0" id="图层_1" xmlns="http://www.w3.org/2000/svg" xmlns:xlink="http://www.w3.org/1999/xlink" x="0px" y="0px"
	 viewBox="0 0 1845 557" style="enable-background:new 0 0 1845 557;" xml:space="preserve">
<g>
	<path style="fill:#FFFFFF;" d="M889.4,477.7h-75.6c-19.2,0-34.9-6.6-47.5-19.3c-12.7-13-19-29.4-19-48.8c0-19.7,6.3-35.5,18.7-47.6
		s28.4-18.2,47.8-18.2h75.6L870,378.4h-44.9c-9.3,0-17.2,3.2-23.3,9.1c-6.1,6.2-9.2,14.1-9.2,23.7c0,9.4,3,17,9.2,22.9
		c6.1,5.9,13.9,8.9,23.3,8.9H870L889.4,477.7z"/>
	<polygon style="fill:#FFFFFF;" points="996.6,477.7 996.6,427.6 942.3,427.6 942.3,477.7 902.4,477.7 902.4,343.6 942.3,343.6 
		942.3,392.9 996.6,392.9 996.6,343.6 1036.3,343.6 1036.3,477.7 	"/>
	<polygon style="fill:#FFFFFF;" points="1128.3,442.9 1163.3,442.9 1134.7,374.8 1088.2,477.7 1049.7,477.7 1113.6,343.5 
		1157.7,343.5 1225.9,477.7 1150.9,477.7 	"/>
	<polygon style="fill:#FFFFFF;" points="1600,442.9 1634.8,442.9 1606.2,374.8 1559.7,477.7 1521.3,477.7 1584.9,343.5 
		1628.7,343.5 1697.6,477.7 1622.5,477.7 	"/>
	<path style="fill:#FFFFFF;" d="M1449.7,397.5l22.5,33.2h20.1L1486,443h-33.3c-9.5,0-17.2-3-23.5-8.9c-6-5.8-9-13.5-9-22.9
		c0-9.6,3-17.6,9.3-23.7c6.1-5.9,13.9-9.1,23.2-9.1h83l16.8-34.8h-99.8c-19.5,0-35.5,6.2-47.8,18.2c-12.4,12.1-18.6,28-18.6,47.6
		c0,19.5,6.2,35.8,18.9,48.8c12.6,12.8,28.5,19.3,47.6,19.3h36.2l37.7-80.2h-77V397.5z"/>
	<polygon style="fill:#FFFFFF;" points="1810.9,478.2 1743.7,404.1 1743.7,477.7 1710.5,477.7 1710.5,343.5 1743.7,343.5 
		1810.9,417.4 1810.9,343.6 1844.2,343.6 1844.2,478.2 	"/>
	<polygon style="fill:#FFFFFF;" points="1339.7,478.2 1272.5,404.1 1272.5,477.7 1239.4,477.7 1239.4,343.5 1272.5,343.5 
		1339.7,417.4 1339.7,343.6 1373,343.6 1373,478.2 	"/>
	<path style="fill:#FFFFFF;" d="M1002.7,192.9c1.1-0.7,1.8-1.7,1.8-3.2v-10.4c0-1.4-0.7-2.5-1.8-3.2c-1-0.7-2.3-1.1-3.6-1.1h-176
		l0.2-79.2c-0.1-1.3-0.9-2.5-1.9-3.1c-1-0.7-2.3-1-3.6-1H787c-1.4,0-2.7,0.4-3.7,1c-1.1,0.6-1.8,1.8-1.8,3.1l-0.2,79.2h-17.2
		c-1.4,0-2.8,0.5-3.7,1.1c-1,0.6-1.9,1.8-1.9,3.2v10.4c0,1.4,0.9,2.5,1.9,3.2c0.9,0.8,2.3,1,3.7,1h17.4v89.3c0,1.4,0.6,2.5,1.8,3.2
		c1,0.8,2.4,1,3.7,1h90c2.1,0,4.1-0.6,5.8-1.7c1.8-1.3,3.6-3.4,3.6-6.5v-10.4c0-2.9-1.8-5.1-3.6-6.4c-1.7-1.3-3.7-1.6-5.8-1.7h-53.7
		v-66.8h51l66.2,88.2c1.4,2.2,4.3,3.6,7.3,3.6h51.6c1.2,0,2.2-0.3,3-0.7c0.9-0.4,1.4-1.3,1.4-2.3c0-0.7-0.1-1.2-0.5-1.9l-0.2-0.2
		l-82.7-86l-0.7-0.7H999C1000.5,193.9,1001.7,193.7,1002.7,192.9z"/>
	<path style="fill:#FFFFFF;" d="M970.5,95.7c-0.7-0.5-1.7-0.6-2.8-0.6h-48.4c-2.6,0-5.3,1-6.7,2.8c-0.6,0.5-3.2,2.9-7.4,6.7
		c-14,12.3-45.2,39.9-69.8,60.8c-0.3,0.3-0.5,1-0.3,1.4c0.2,0.5,0.7,0.9,1.2,0.9h36c0.3,0,0.6-0.1,0.7-0.3l98.2-67.5l0.3-0.3
		c0.4-0.4,0.5-1,0.5-1.5C971.9,96.9,971.2,96,970.5,95.7z"/>
	<path style="fill:#FFFFFF;" d="M1575.2,114c0-1.3-0.7-2.4-1.8-3.2c-0.9-0.7-2.3-1.1-3.6-1.1h-103c-0.7,0-1.1-0.1-1.3-0.3v-0.1
		l11.2-12.9v-0.2c0.3-0.5,0.6-1.1,0.6-1.7c0-0.9-0.6-1.7-1.5-2.3c-0.7-0.4-1.7-0.5-2.7-0.6h-34.4c-2.7,0.1-5.4,1.3-6.6,3.4
		l-32.7,38.9c-0.4,0.5-0.7,1.1-0.7,1.7c0,1,0.6,1.8,1.4,2.2s1.5,0.5,2.5,0.5h32.5c2.5,0,5.8-0.6,7.8-1.4c0.2-0.1,0.3-0.3,0.6-0.3
		l6.3-6.3c1.4-0.8,4.3-1.6,6.3-1.6h113.6c1.4,0,2.7-0.4,3.6-1.2c1-0.6,1.8-1.8,1.8-2.9L1575.2,114L1575.2,114z"/>
	<path style="fill:#FFFFFF;" d="M1573.4,147.2c-1.2-0.6-2.4-1-3.8-1H1407c-1.5,0-2.8,0.4-3.8,1c-1.1,0.7-1.8,1.9-1.8,3.2V161
		c0,1.3,0.7,2.4,1.7,3.1c1,0.8,2.4,1.1,3.9,1.1h162.7c1.4,0,2.6-0.3,3.8-1.1c1-0.6,1.8-1.8,1.8-3.1v-10.6
		C1575.2,149.1,1574.4,147.9,1573.4,147.2z"/>
	<path style="fill:#FFFFFF;" d="M1574.6,268.1c-1-0.9-2.3-1.1-3.8-1.1h-112.3l113.4-65.8c2.4-1,4.3-3.3,4.5-5.7v-10.4
		c0-1.4-0.9-2.5-1.9-3.3c-1-0.7-2.2-1-3.7-1h-163.4c-1.4,0-2.8,0.3-3.6,1c-1.2,0.8-1.9,1.8-1.9,3.3v10.4c0,1.3,0.7,2.4,1.9,3.2
		c0.8,0.6,2.2,1.1,3.6,1.1h110.2L1395,264.7l-0.2,0.3c-0.7,0.5-1.4,1.1-2,1.7c-0.2,0.1-0.5,0.4-0.5,0.4l-0.2,0.1
		c-0.2,0.3-0.5,0.7-0.5,1v0.1c0,0,0,0.3,0,0.8v12.6c0,1.4,0.8,2.5,1.8,3.2c1,0.8,2.4,1,3.7,1h173.8c1.4,0,2.7-0.3,3.8-1
		c0.9-0.7,1.8-1.8,1.8-3.2v-10.5C1576.4,269.9,1575.5,268.7,1574.6,268.1z"/>
	<path style="fill:#FFFFFF;" d="M1386,192.6l-32.1-40.8c-1.4-2-4.3-3.2-7.1-3.2h-35.4c-1,0-1.9,0.2-2.6,0.6
		c-0.7,0.4-1.4,1.1-1.3,2.1c0,0.7,0.2,1.4,0.7,1.9l0.2,0.2l40.7,41.2v0.1c2,1.5,5.2,2.5,7.8,2.5h25.7c0.9,0,1.9-0.1,2.6-0.5
		s1.3-1.1,1.3-2.2C1386.6,193.7,1386.4,193.1,1386,192.6z"/>
	<path style="fill:#FFFFFF;" d="M1395.9,145l-30-40.8c-1.4-2-4.3-3.2-7.1-3.2h-35.3c-1.1,0-2,0.2-2.7,0.6c-0.7,0.3-1.5,1.3-1.4,2.2
		c0,0.7,0.3,1.3,0.8,1.9L1361,147l0.1,0.1c1.9,1.4,5.1,2.5,7.9,2.5h23.6c1.1,0,1.9-0.1,2.6-0.5s1.3-1.3,1.3-2.2
		C1396.5,146.2,1396.3,145.6,1395.9,145z"/>
	<path style="fill:#FFFFFF;" d="M1380.7,207.4c-0.8-0.5-1.7-0.8-2.9-0.8h-25.7c-1.5,0-2.9,0.4-4,0.9c-1,0.7-2,1.5-2.4,2.8
		l-34.2,70.6c-0.2,0.4-0.3,0.8-0.3,1.3c0,1,0.6,2,1.4,2.6s1.9,0.7,3,0.7h38.7c2.7,0,5.8-1,7.6-2.6c0.1-0.2,0.3-0.4,0.3-0.7
		l19.7-71.1c0.2-0.4,0.2-0.8,0.2-1.2C1382.1,208.8,1381.5,207.9,1380.7,207.4z"/>
	<path style="fill:#FFFFFF;" d="M1653.5,183.8l56.7-53.6c0.9-1.1,3.8-2.2,5.8-2.2h123.8c1.5,0,2.8-0.4,3.8-1.1s1.7-1.8,1.7-3.1
		v-10.5c0-1.4-0.8-2.5-1.7-3.3c-1-0.6-2.3-1.1-3.8-1.1h-101.4c-0.6,0-1.2-0.2-1.3-0.2h-0.1c0,0,0.1-0.1,0.1-0.3l12-12.1l0.2-0.2
		c0.3-0.6,0.5-1.1,0.5-1.8c0-1.1-0.5-1.9-1.3-2.2c-0.8-0.5-1.7-0.5-2.7-0.5h-48.5c-2.7,0-5.6,1.2-7,3l-11.3,12l-0.2,0.1
		c-0.5,1.1-3.1,2.2-5.1,2.1h-67.5c-1.4,0-2.7,0.5-3.7,1.1c-1,0.8-1.9,1.9-1.9,3.3v10.5c0,1.3,0.9,2.4,1.9,3.1
		c0.9,0.8,2.3,1.1,3.7,1.1h56.1c0.5,0,1,0,1.1,0c-0.1,0.2-0.1,0.2-0.1,0.3c0,0-13.7,13.8-27.5,28.1c-7,7.2-13.9,14.4-19,20
		c-2.7,2.8-4.9,5.2-6.4,7c-0.8,0.9-1.5,1.7-1.9,2.3c-0.2,0.2-0.5,0.5-0.5,0.7c-0.1,0.3-0.2,0.4-0.3,0.9v0.2v12.3
		c0,1.3,0.7,2.5,1.9,3.1c1,0.8,2.3,1.1,3.8,1.1h91.9c0.9,0,1.8,0.3,2.3,0.7s0.8,0.7,0.8,1.1v29.8c0,0.2-0.3,0.7-0.8,1.1
		c-0.5,0.4-1.4,0.6-2.3,0.6h-99.4c-1.3,0.1-2.7,0.5-3.8,1.2c-1,0.6-1.6,1.7-1.6,3.1v10.6c0,1.4,0.7,2.4,1.6,3.1
		c1.1,0.8,2.4,1.1,3.8,1.1h99.4c0.9,0,1.8,0.4,2.3,0.7c0.5,0.3,0.8,0.9,0.8,0.9v25.5c0,1.3,0.7,2.5,1.7,3.2s2.5,1.1,3.9,1.1h30.7
		c1.5,0,2.7-0.4,3.7-1.1c1.1-0.7,1.7-1.9,1.9-3.2V258c-0.2-0.1,0.1-0.7,0.7-1c0.5-0.3,1.3-0.7,2.3-0.7h86.4c1.5,0,2.7-0.3,3.7-1.1
		c1.1-0.7,1.9-1.8,1.9-3.1v-10.6c0-1.4-0.8-2.5-1.9-3.1c-1-0.8-2.2-1.1-3.7-1.2h-86.4c-1,0.1-1.8-0.1-2.3-0.6
		c-0.6-0.4-0.9-0.8-0.9-1.1l0.2-29.8c-0.2-0.3,0.1-0.7,0.7-1.1c0.5-0.5,1.3-0.7,2.3-0.7h85c1.4,0,2.9-0.3,3.8-1.1
		c1.1-0.6,1.8-1.8,1.8-3.1V188c0-1.4-0.7-2.5-1.8-3.2c-0.9-0.8-2.4-1.1-3.8-1.1h-85c-1,0-1.8-0.4-2.3-0.7c-0.6-0.5-0.9-0.8-0.7-1.1
		V150c-0.2-1.3-0.8-2.5-1.9-3.1c-1-0.8-2.2-1.2-3.7-1.2H1714c-1.4,0-2.8,0.4-3.9,1.2c-1,0.6-1.7,1.7-1.7,3.1v32.2
		c0,0.3-0.3,0.6-0.8,1.1c-0.5,0.3-1.4,0.7-2.3,0.7h-51.1C1654,184,1653.7,183.8,1653.5,183.8l-0.9-1L1653.5,183.8z"/>
	<path style="fill:#FFFFFF;" d="M1280.9,109.4c-1.1-0.6-2.5-1.1-3.8-1.1h-98.2c-1.1,0-1.8-0.2-2.3-0.6s-0.7-0.7-0.7-1V95.6
		c0-1.3-0.9-2.5-1.9-3.2s-2.3-1-3.7-1h-30.8c-1.5,0-2.7,0.3-3.7,1c-1.1,0.7-1.9,1.9-1.9,3.2v11.1c0,0.3-0.1,0.7-0.7,1
		c-0.5,0.4-1.3,0.6-2.4,0.6h-95.7c-1.4,0-2.8,0.4-3.8,1.1s-1.7,1.9-1.7,3.3v28.9c0,0,0.1,0.5,0.3,0.8c0.3,0.2,0.7,0.4,1,0.4h36.3
		c0.3,0,0.6-0.3,0.8-0.4c0.4-0.3,0.4-0.7,0.4-0.7v-14.2h175.5v14.1c0,0,0,0.5,0.3,0.8c0.2,0.2,0.5,0.4,0.8,0.4h36.3
		c0.4,0,0.7-0.3,0.9-0.4c0.3-0.3,0.3-0.7,0.3-0.7v-29C1282.6,111.3,1281.9,110.1,1280.9,109.4z"/>
	<path style="fill:#FFFFFF;" d="M1281.4,279.1c-1.1-1-2-1.5-2-1.5l-0.3-0.2l-85.2-33.7l41.8-18.5c0,0,3.3-1.2,6.4-4.4
		c3.2-3.2,6.5-8.4,6.5-16V185h4.4h25c1.4,0,2.7-0.5,3.8-1.2c1-0.7,1.8-1.8,1.8-3.2V170c-0.1-1.3-0.8-2.3-1.8-3.1
		c-1-0.6-2.4-1.1-3.8-1.1h-29.4v-12.4c0-1.3-0.7-2.4-1.6-3.1c-1.1-0.7-2.3-1.1-3.7-1.1h-27.9c-1.4,0-2.7,0.4-3.6,1.1
		c-0.9,0.7-1.5,1.9-1.5,3.1V166h-107.6v-12.4c0-1.3-0.6-2.4-1.7-3.1c-1-0.7-2.1-1.1-3.5-1.1h-28.1c-1.2,0-2.4,0.4-3.4,1.1
		c-1,0.7-1.6,1.9-1.6,3.1V166h-30c-1.5,0-2.7,0.4-3.8,1.1c-1.1,0.8-1.8,1.7-1.8,3.1v10.6c0.1,1.4,0.7,2.5,1.8,3.2
		c1.1,0.7,2.3,1.2,3.8,1.2h30v19.7c-0.1,7.7,3.2,12.9,6.3,16c3.4,3.3,6.5,4.4,6.5,4.4L1118,244l-84,33.5l-0.3,0.2c0,0-1,0.5-1.9,1.5
		s-2.2,2.2-2.2,3.9c-0.1,1,0.8,2.3,2.1,2.7c1.1,0.4,2.7,0.6,5.1,0.6c5.4,0,35,0,54,0c9,0,15.8-3.1,15.8-3.1l49.8-22.1l49,22.1
		c0,0,6.8,3.1,15.8,3.1c19,0,50.2,0,55.7,0c2.2,0,3.9-0.2,5.1-0.6c1.1-0.4,2-1.7,2-2.7C1283.5,281.3,1282.2,280.1,1281.4,279.1
		L1281.4,279.1z M1106.5,208.5L1106.5,208.5c-3.2-1.1-3.9-2.5-4.1-3.4V185H1210v20.1c-0.3,0.8-0.9,2.2-4.2,3.3l-49.7,19.8
		L1106.5,208.5z"/>
</g>
<g>
	<g>
		<g>
			<path style="fill:#333333;" d="M319.6,0C63.2,0-22.1,75.1,4.7,306.7C27.6,504.5,110.4,557,319.6,557s291.9-52.4,314.9-250.3
				C661.2,75.1,575.9,0,319.6,0z"/>
			
				<radialGradient id="SVGID_1_" cx="-80.2681" cy="408.1101" r="453.2234" gradientTransform="matrix(0.875 0 0 -0.875 274.5604 521.6626)" gradientUnits="userSpaceOnUse">
				<stop  offset="0" style="stop-color:#009FE8"/>
				<stop  offset="0.5" style="stop-color:#004DA0"/>
				<stop  offset="1" style="stop-color:#0A2B6F"/>
			</radialGradient>
			<path style="fill:url(#SVGID_1_);" d="M319.6,14C76.2,14-4.8,85.4,20.6,305.3C42.4,493.2,120.9,543,319.5,543
				s277.2-49.8,298.9-237.7C643.9,85.4,563,14,319.6,14z"/>
			
				<linearGradient id="SVGID_2_" gradientUnits="userSpaceOnUse" x1="319.6" y1="557.9721" x2="319.6" y2="4.6384" gradientTransform="matrix(1 0 0 -1 0 558)">
				<stop  offset="0" style="stop-color:#ACACAD"/>
				<stop  offset="0" style="stop-color:#ACACAD"/>
				<stop  offset="6.000000e-02" style="stop-color:#FDFDFD"/>
				<stop  offset="9.000000e-02" style="stop-color:#FDFDFD"/>
				<stop  offset="0.26" style="stop-color:#FDFDFD"/>
				<stop  offset="0.4" style="stop-color:#FDFDFD"/>
				<stop  offset="0.69" style="stop-color:#3C3736"/>
				<stop  offset="1" style="stop-color:#3C3736"/>
			</linearGradient>
			<path style="fill:url(#SVGID_2_);" d="M319.6,2.2C65.3,2.2-19.3,76.8,7.2,306.5c22.7,196.3,104.9,248.3,312.4,248.3
				s289.6-52,312.4-248.3C658.5,76.8,573.9,2.2,319.6,2.2L319.6,2.2z M592.8,304.5L592.8,304.5C572.9,486.8,501,535.1,319.5,535.1
				c-181.6,0-253.4-48.3-273.3-230.6C23,91.1,97,21.9,319.6,21.9C542,21.9,616.1,91.1,592.8,304.5z"/>
			<path style="fill:#005A9B;" d="M319.6,15.3c-235.8,0-314.3,71-289.7,289.9c21.1,187,97.3,236.6,289.7,236.6
				s268.6-49.6,289.6-236.6C633.8,86.3,555.4,15.3,319.6,15.3L319.6,15.3z M587.7,304L587.7,304c-19.6,178.8-90,226.2-268.1,226.2
				S71.1,482.8,51.6,304C28.7,94.7,101.4,26.8,319.6,26.8S610.4,94.7,587.7,304z"/>
			
				<linearGradient id="SVGID_3_" gradientUnits="userSpaceOnUse" x1="319.5291" y1="14.5" x2="319.5291" y2="546.0977" gradientTransform="matrix(1 0 0 -1 0 558)">
				<stop  offset="0" style="stop-color:#C0C1C1"/>
				<stop  offset="0.11" style="stop-color:#EBEBEB"/>
				<stop  offset="0.17" style="stop-color:#EBEBEB"/>
				<stop  offset="0.44" style="stop-color:#231815"/>
				<stop  offset="0.59" style="stop-color:#231815"/>
				<stop  offset="0.79" style="stop-color:#231815"/>
				<stop  offset="1" style="stop-color:#231815"/>
			</linearGradient>
			<path style="fill:url(#SVGID_3_);" d="M319.6,13.5C82.2,13.5,3.2,85,27.9,305.3c21.3,188.3,97.9,238.2,291.6,238.2
				s270.4-49.9,291.6-238.2C636,85,556.9,13.5,319.6,13.5L319.6,13.5z M589.4,304.2L589.4,304.2c-19.6,180-90.6,227.7-269.9,227.7
				S69.3,484.2,49.6,304.2C26.8,93.5,99.8,25.1,319.6,25.1S612.4,93.5,589.4,304.2z"/>
			<path style="fill:none;stroke:#FFFFFF;stroke-width:0.138;" d="M319.6,13.5C82.2,13.5,3.2,85,27.9,305.3
				c21.3,188.3,97.9,238.2,291.6,238.2s270.4-49.9,291.6-238.2C636,85,556.9,13.5,319.6,13.5"/>
			<path style="fill:#0F0F0F;" d="M497.3,103.2C459.5,74,401.5,62.4,319.6,62.4S179.7,74,141.9,103.2c-37.9,29.2-55,76.2-54.9,145.1
				c0,18.1,1.2,37.8,3.4,59c8.2,78.4,27.4,128.7,63.9,159.2c36.5,30.4,89.7,40.7,165.2,40.7c75.6,0,128.6-10.3,165.2-40.7
				c36.5-30.4,55.7-80.7,63.9-159.2c2.3-21.3,3.5-41,3.5-59.1C552.2,179.4,535.1,132.4,497.3,103.2z"/>
			<g>
				
					<radialGradient id="SVGID_4_" cx="-80.3917" cy="408.1276" r="453.2483" gradientTransform="matrix(0.875 0 0 -0.875 274.5604 521.6626)" gradientUnits="userSpaceOnUse">
					<stop  offset="0" style="stop-color:#009FE8"/>
					<stop  offset="0.5" style="stop-color:#004DA0"/>
					<stop  offset="1" style="stop-color:#0A2B6F"/>
				</radialGradient>
				<path style="fill:url(#SVGID_4_);" d="M531,302c-15.2,144.6-70.6,182.9-210.4,182.9S125.4,446.6,110.1,302
					C92.2,132.9,149.2,78,320.6,78C491.9,78,549,132.9,531,302z"/>
				<g>
					
						<linearGradient id="SVGID_5_" gradientUnits="userSpaceOnUse" x1="330.601" y1="168.9842" x2="265.7784" y2="387.9577" gradientTransform="matrix(1 0 0 -1 0 558)">
						<stop  offset="0" style="stop-color:#4C4948"/>
						<stop  offset="0.7" style="stop-color:#4C4948"/>
						<stop  offset="0.71" style="stop-color:#4C4948"/>
						<stop  offset="0.83" style="stop-color:#3E3A39"/>
						<stop  offset="0.92" style="stop-color:#3E3A39"/>
						<stop  offset="1" style="stop-color:#3E3A39"/>
						<stop  offset="1" style="stop-color:#3E3A39"/>
					</linearGradient>
					<polygon style="fill:url(#SVGID_5_);" points="235.8,87.2 222.5,74.1 319.6,359.1 319.6,301.6 					"/>
					
						<linearGradient id="SVGID_6_" gradientUnits="userSpaceOnUse" x1="368.05" y1="196.6014" x2="368.05" y2="406.5253" gradientTransform="matrix(1 0 0 -1 0 558)">
						<stop  offset="0" style="stop-color:#656464"/>
						<stop  offset="0.7" style="stop-color:#656464"/>
						<stop  offset="0.71" style="stop-color:#656464"/>
						<stop  offset="0.83" style="stop-color:#3E3A39"/>
						<stop  offset="0.92" style="stop-color:#3E3A39"/>
						<stop  offset="1" style="stop-color:#3E3A39"/>
						<stop  offset="1" style="stop-color:#3E3A39"/>
					</linearGradient>
					<polygon style="fill:url(#SVGID_6_);" points="403.2,87.2 416.5,74.1 319.6,359.1 319.6,301.6 					"/>
					
						<linearGradient id="SVGID_7_" gradientUnits="userSpaceOnUse" x1="319.5868" y1="491.5262" x2="319.5868" y2="81.9041" gradientTransform="matrix(1 0 0 -1 0 558)">
						<stop  offset="0" style="stop-color:#717071"/>
						<stop  offset="1" style="stop-color:#4C4948"/>
					</linearGradient>
					<path style="fill:url(#SVGID_7_);" d="M319.6,67.1c-141.8,0-240.9,41.1-217.8,234.5C120.4,458.5,206.8,488,319.6,488
						s199.1-29.6,217.8-186.5C560.4,108.3,461.3,67.1,319.6,67.1L319.6,67.1z M319.6,477.5L319.6,477.5
						c-88.1,0-185.9-13.2-204.1-176C93,99.6,210.4,83.5,319.6,83.5s226.6,16.2,204,218C505.4,464.3,407.7,477.5,319.6,477.5z"/>
					
						<linearGradient id="SVGID_8_" gradientUnits="userSpaceOnUse" x1="319.3868" y1="564.223" x2="319.3868" y2="225.0838" gradientTransform="matrix(1 0 0 -1 0 558)">
						<stop  offset="0" style="stop-color:#3E3A39"/>
						<stop  offset="1" style="stop-color:#000000"/>
					</linearGradient>
					<path style="fill:url(#SVGID_8_);" d="M109.8,341.3c-3.7-25.4,3.2-29.5,1-55.7C100,120.8,179,85.8,300.1,79.9
						c0.6,0,2.5-0.1,2.8-0.1c5.6-0.2,11-0.3,16.6-0.3c5.5,0,10.9,0.1,16.3,0.3c0.5,0,3.2,0.1,4,0.2
						c120.8,6.3,199.1,41.4,188.3,205.8c-3.7,32.7,7.3,26.2-0.9,63.9c2.7-10,8-30.5,10-48.1c23-193.2-76.1-234.5-217.8-234.5
						c-141.8,0-240.9,41.1-217.8,234.5c2.1,17.6,6.8,38.8,9.6,48.1C110.7,346.6,110.2,343.8,109.8,341.3z"/>
					
						<linearGradient id="SVGID_9_" gradientUnits="userSpaceOnUse" x1="319.55" y1="503.0134" x2="319.55" y2="56.3705" gradientTransform="matrix(1 0 0 -1 0 558)">
						<stop  offset="0" style="stop-color:#ACACAD"/>
						<stop  offset="0" style="stop-color:#ACACAD"/>
						<stop  offset="6.000000e-02" style="stop-color:#FDFDFD"/>
						<stop  offset="9.000000e-02" style="stop-color:#FDFDFD"/>
						<stop  offset="0.26" style="stop-color:#FDFDFD"/>
						<stop  offset="0.4" style="stop-color:#FDFDFD"/>
						<stop  offset="0.69" style="stop-color:#3C3736"/>
						<stop  offset="1" style="stop-color:#3C3736"/>
					</linearGradient>
					<path style="fill:url(#SVGID_9_);" d="M319.6,56.3c-150.3,0-256,45.1-230.3,248.8c20.7,164,112.2,195.6,230.3,195.6
						S529.2,469,549.8,305.1C575.5,101.6,469.8,56.3,319.6,56.3L319.6,56.3z M319.6,488L319.6,488c-112.8,0-199.1-29.6-217.8-186.5
						C78.8,108.2,177.9,67,319.6,67s240.8,41.2,217.8,234.5C518.7,458.4,432.4,488,319.6,488z"/>
					
						<linearGradient id="SVGID_10_" gradientUnits="userSpaceOnUse" x1="264.6614" y1="286.8024" x2="394.868" y2="125.0946" gradientTransform="matrix(1 0 0 -1 0 558)">
						<stop  offset="0" style="stop-color:#FFFFFF"/>
						<stop  offset="5.000000e-02" style="stop-color:#FFFFFF"/>
						<stop  offset="0.14" style="stop-color:#FFFFFF"/>
						<stop  offset="0.3" style="stop-color:#E5E5E6"/>
						<stop  offset="0.37" style="stop-color:#E5E5E6"/>
						<stop  offset="0.66" style="stop-color:#9E9E9F"/>
						<stop  offset="0.85" style="stop-color:#7D7D7D"/>
						<stop  offset="0.88" style="stop-color:#7D7D7D"/>
						<stop  offset="1" style="stop-color:#7D7D7D"/>
					</linearGradient>
					<path style="fill:url(#SVGID_10_);" d="M204.1,242c-0.2-44.6,1.7-122.8,3-151.6c-0.1-2.9-1.4-6.5-6-4.9l-0.2-2.8l27.7-8
						l1.5,2.4c0,0-6.1,1.3-3.9,7.8c2.6,7.7,66.6,195.7,81.7,240.2c1.9,5.5,11.6,9.3,11.6,9.3v154.5c0,0-2.3-0.3-6.4-5.9
						c-18.4-25.4-58.4-103.4-89.4-162.3C216.5,304.6,204.3,281.1,204.1,242z"/>
					
						<linearGradient id="SVGID_11_" gradientUnits="userSpaceOnUse" x1="214.5045" y1="360.7135" x2="339.0286" y2="45.0187" gradientTransform="matrix(1 0 0 -1 0 558)">
						<stop  offset="0" style="stop-color:#9E9E9F"/>
						<stop  offset="0.26" style="stop-color:#231815"/>
						<stop  offset="0.52" style="stop-color:#231815"/>
						<stop  offset="0.8" style="stop-color:#9E9E9F"/>
						<stop  offset="0.95" style="stop-color:#C8C9CA"/>
						<stop  offset="1" style="stop-color:#C8C9CA"/>
					</linearGradient>
					<path style="fill:url(#SVGID_11_);" d="M209.2,91.4c0.4,2.1-0.8,130.8,0.9,160.2c1.4,23.5,8.9,43.3,27.4,69.8
						c52.5,75.3,82.1,114.5,82.1,114.5v51c0,0-13-20-29.1-47.2c-17.2-29.2-37.1-70.2-58.5-111c-15.8-30.3-25.3-55.6-25.5-87.8
						C206.2,195.7,207,124.4,209.2,91.4z"/>
					
						<linearGradient id="SVGID_12_" gradientUnits="userSpaceOnUse" x1="302.3264" y1="83.7843" x2="313.3738" y2="73.4135" gradientTransform="matrix(1 0 0 -1 0 558)">
						<stop  offset="0" style="stop-color:#7D7D7D"/>
						<stop  offset="6.000000e-02" style="stop-color:#7D7D7D"/>
						<stop  offset="0.56" style="stop-color:#4C4948"/>
						<stop  offset="0.74" style="stop-color:#4C4948"/>
						<stop  offset="1" style="stop-color:#4C4948"/>
					</linearGradient>
					<path style="fill:url(#SVGID_12_);" d="M305.1,470.9l11,11.7c-1.4,2.2-4.1,3.7-7.1,3.8l-9-9.2
						C304.8,477.4,307.9,475.3,305.1,470.9z"/>
					<g>
						
							<linearGradient id="SVGID_13_" gradientUnits="userSpaceOnUse" x1="342.7591" y1="300.4195" x2="425.3204" y2="235.9542" gradientTransform="matrix(1 0 0 -1 0 558)">
							<stop  offset="0" style="stop-color:#FFFFFF"/>
							<stop  offset="5.000000e-02" style="stop-color:#FFFFFF"/>
							<stop  offset="0.14" style="stop-color:#FFFFFF"/>
							<stop  offset="0.3333" style="stop-color:#E5E5E6"/>
							<stop  offset="0.66" style="stop-color:#9E9E9F"/>
							<stop  offset="0.85" style="stop-color:#7D7D7D"/>
							<stop  offset="0.88" style="stop-color:#7D7D7D"/>
							<stop  offset="1" style="stop-color:#7D7D7D"/>
						</linearGradient>
						<path style="fill:url(#SVGID_13_);" d="M435,242c0.2-44.6-1.7-122.8-3-151.6c0.1-2.9,1.4-6.5,6-4.9l0.2-2.8L410.3,75l-1.3,2.1
							c0,0,6,1.3,3.9,7.8c-2.6,7.7-66.6,195.7-81.8,240.2c-1.8,5.5-11.5,9.3-11.5,9.3v154.5c0,0,2.4-0.3,6.4-5.9
							c18.5-25.4,58.5-103.4,89.4-162.3C422.5,304.6,434.7,281.1,435,242z"/>
						
							<linearGradient id="SVGID_14_" gradientUnits="userSpaceOnUse" x1="344.1786" y1="346.2282" x2="444.0079" y2="93.14" gradientTransform="matrix(1 0 0 -1 0 558)">
							<stop  offset="0" style="stop-color:#9E9E9F"/>
							<stop  offset="0.26" style="stop-color:#231815"/>
							<stop  offset="0.52" style="stop-color:#231815"/>
							<stop  offset="0.8" style="stop-color:#9E9E9F"/>
							<stop  offset="0.95" style="stop-color:#C8C9CA"/>
							<stop  offset="1" style="stop-color:#C8C9CA"/>
						</linearGradient>
						<path style="fill:url(#SVGID_14_);" d="M429.9,91.4c-0.3,2.1,0.8,130.8-1,160.2c-1.3,23.5-8.8,43.3-27.4,69.8
							c-52.5,75.3-82,114.5-82,114.5v51c0,0,13-20,29-47.2c17.3-29.2,37.2-70.2,58.5-111c15.9-30.3,25.4-55.6,25.5-87.8
							C432.8,195.7,432,124.4,429.9,91.4z"/>
					</g>
					
						<linearGradient id="SVGID_15_" gradientUnits="userSpaceOnUse" x1="319.4" y1="473.7246" x2="319.4" y2="71.381" gradientTransform="matrix(1 0 0 -1 0 558)">
						<stop  offset="0" style="stop-color:#FFFFFF"/>
						<stop  offset="0.64" style="stop-color:#FFFFFF"/>
						<stop  offset="0.66" style="stop-color:#FFFFFF"/>
						<stop  offset="0.7" style="stop-color:#C8C9CA"/>
						<stop  offset="1" style="stop-color:#FFFFFF"/>
						<stop  offset="1" style="stop-color:#FFFFFF"/>
					</linearGradient>
					<path style="fill:url(#SVGID_15_);" d="M321.7,478.8c0.2-25.7,0.6-90.3,0.6-95.3c0-14.4,6.1-33.2,6.1-33.2l89-269.5l-3.1-0.2
						L327,337.4l-5,14.5c0,0-0.5,2.3-2.4,2.3c-2,0-2.5-2.3-2.5-2.3l-4.9-14.5L225.3,82.3l-2.2-6.1l-1.7,4.2l89.1,270
						c0,0,6.1,18.8,6.2,33.2c0,5,0.4,69.6,0.6,95.3c-0.2,4.4-4.2,7.8-9,7.6l0.4,2.5h10.7h10.7l0.5-2.5
						C325.9,486.6,322,483.2,321.7,478.8z"/>
					
						<linearGradient id="SVGID_16_" gradientUnits="userSpaceOnUse" x1="299.56" y1="255.7" x2="339.0017" y2="255.7" gradientTransform="matrix(1 0 0 -1 0 558)">
						<stop  offset="0" style="stop-color:#4C4948"/>
						<stop  offset="0.35" style="stop-color:#4C4948"/>
						<stop  offset="0.49" style="stop-color:#A9AAAA"/>
						<stop  offset="0.5" style="stop-color:#A9AAAA"/>
						<stop  offset="0.64" style="stop-color:#656464"/>
						<stop  offset="0.65" style="stop-color:#656464"/>
						<stop  offset="0.99" style="stop-color:#656464"/>
						<stop  offset="1" style="stop-color:#656464"/>
					</linearGradient>
					<path style="fill:url(#SVGID_16_);" d="M325.1,287.4c0,0-1.4,4.6-5.5,4.6s-5.6-4.6-5.6-4.6l-14.4-37l0.4,51l17.1,50.5
						c0,0,0.5,2.3,2.5,2.3s2.4-2.3,2.4-2.3l17.2-50.5l0.4-51L325.1,287.4z"/>
					<path style="fill:#FFFFFF;" d="M99.9,301.5c-9.9-82.1,1.9-146.2,43.3-186l0.2,0.2C186.7,74.2,248.4,67,319.6,67
						s134,7.7,177.1,49.1l-0.1-0.1c41.5,39.8,52.5,103.4,42.6,185.5c-9,75.2-38.4,129.7-74.1,153.3c-43.1,28.5-88.9,34.7-145.5,34.7
						V488v-1.5c112.5-0.2,197.4-29,216-185c22.5-192-74.9-231.8-216-232.1c-141.2,0.3-238.6,40-216,232.1
						c18.7,156.1,103.5,184.8,216,185v1.5v1.5c-56.6,0-110-8.1-146.5-35C134.9,426.3,109,376.8,99.9,301.5z"/>
					
						<linearGradient id="SVGID_17_" gradientUnits="userSpaceOnUse" x1="328.4298" y1="81.0866" x2="333.9739" y2="75.8821" gradientTransform="matrix(1 0 0 -1 0 558)">
						<stop  offset="0" style="stop-color:#7D7D7D"/>
						<stop  offset="6.000000e-02" style="stop-color:#7D7D7D"/>
						<stop  offset="0.56" style="stop-color:#4C4948"/>
						<stop  offset="0.74" style="stop-color:#4C4948"/>
						<stop  offset="1" style="stop-color:#4C4948"/>
					</linearGradient>
					<path style="fill:url(#SVGID_17_);" d="M333.9,470.9l-11,11.7c1.5,2.2,4.1,3.7,7.1,3.8l9.1-9.2
						C333.2,477.5,331.7,474.6,333.9,470.9z"/>
				</g>
			</g>
		</g>
	</g>
</g>
</svg>
