<?xml version="1.0" encoding="utf-8"?>
<!-- Generator: Adobe Illustrator 22.0.1, SVG Export Plug-In . SVG Version: 6.00 Build 0)  -->
<svg version="1.0" id="图层_1" xmlns="http://www.w3.org/2000/svg" xmlns:xlink="http://www.w3.org/1999/xlink" x="0px" y="0px"
	 viewBox="0 0 104.6 121.4" style="enable-background:new 0 0 104.6 121.4;" xml:space="preserve">
<g>
	<g>
		<defs>
			<rect id="SVGID_1_" x="1" y="0.3" width="102.8" height="120"/>
		</defs>
		<clipPath id="SVGID_2_">
			<use xlink:href="#SVGID_1_"  style="overflow:visible;"/>
		</clipPath>
		<path style="clip-path:url(#SVGID_2_);fill:#a0acb8;" d="M99.5,27.3L56.7,1.7c-1.4-0.8-2.9-1.2-4.4-1.2c-1.5,0-3.1,0.4-4.4,1.2L5.1,27.3
			C2.5,28.8,1,31.6,1,34.6v52.3c0,3.1,1.6,5.9,4.3,7.4L48,119c1.3,0.8,2.8,1.1,4.3,1.1c1.5,0,3-0.4,4.3-1.1l42.8-24.7
			c2.6-1.5,4.3-4.4,4.3-7.4V34.6C103.6,31.6,102,28.8,99.5,27.3L99.5,27.3z M52.3,9l38.6,23.1L52.2,55.3L13.7,32.1L52.3,9z
			 M9.5,39.6L48,62.7v46.4L9.5,86.9V39.6z M56.5,109.2V62.7l38.5-23.1v47.3L56.5,109.2z M56.5,109.2"/>
	</g>
</g>
</svg>
