<?xml version="1.0" encoding="utf-8"?>
<!-- Generator: Adobe Illustrator 22.0.1, SVG Export Plug-In . SVG Version: 6.00 Build 0)  -->
<svg version="1.0" id="图层_1" xmlns="http://www.w3.org/2000/svg" xmlns:xlink="http://www.w3.org/1999/xlink" x="0px" y="0px"
	 viewBox="0 0 118.2 117.9" style="enable-background:new 0 0 118.2 117.9;" xml:space="preserve">
<g>
	<g>
		<defs>
			<rect id="SVGID_1_" x="1" y="0.1" width="116" height="117.1"/>
		</defs>
		<clipPath id="SVGID_2_">
			<use xlink:href="#SVGID_1_"  style="overflow:visible;"/>
		</clipPath>
		<path style="clip-path:url(#SVGID_2_);fill:#a0acb8;" d="M99.2,117.1c-5.1,0-9.5-2.2-13.1-5.1L62.8,88.7
			c-16.7,6.5-35.6,2.9-48-10.2C1,64.7-2.6,45.1,4.6,27.6c0.7-1.5,1.5-2.2,2.9-2.2c1.5,0,2.2,0,2.9,0.7l19.6,19.6l16-16L26.5,10.9
			c-0.7-1.5-0.7-2.2-0.7-3.6c0-1.5,0.7-2.2,2.2-2.9C45.4-3.6,65,0,78.8,13.8c8.7,8.7,13.8,21.1,13.1,33.5c0,2.2-1.5,3.6-3.6,3.6
			c-2.2,0-3.6-1.5-3.6-3.6c0-10.2-3.6-20.4-11.6-28.4C63.5,9.5,49,5.8,35.9,9.5l18.2,18.2c1.5,1.5,1.5,3.6,0,5.1L33,53.8
			c-1.5,1.5-3.6,1.5-5.1,0L9.7,35.6c-3.6,13.1,0,27.6,9.5,37.1c10.9,10.9,27.6,14.5,42.2,8c1.5-0.7,2.9,0,4.4,0.7l24.7,24.7
			c4.4,4.4,11.6,4.4,16,0c4.4-4.4,4.4-11.6,0-16L81.7,65.4c-1.5-1.5-1.5-3.6,0-5.1c1.5-1.5,3.6-1.5,5.1,0l24.7,24.7
			c7.3,7.3,7.3,18.9,0,26.2C108.6,114.9,103.5,117.1,99.2,117.1L99.2,117.1z M99.2,117.1"/>
	</g>
</g>
</svg>
