<?xml version="1.0" encoding="utf-8"?>
<!-- Generator: Adobe Illustrator 22.0.1, SVG Export Plug-In . SVG Version: 6.00 Build 0)  -->
<svg version="1.0" id="图层_1" xmlns="http://www.w3.org/2000/svg" xmlns:xlink="http://www.w3.org/1999/xlink" x="0px" y="0px"
	 viewBox="0 0 96.1 116.9" style="enable-background:new 0 0 96.1 116.9;" xml:space="preserve">
<g>
	<g>
		<defs>
			<rect id="SVGID_1_" x="1.2" y="0.7" width="93.9" height="115.7"/>
		</defs>
		<clipPath id="SVGID_2_">
			<use xlink:href="#SVGID_1_"  style="overflow:visible;"/>
		</clipPath>
		<path style="clip-path:url(#SVGID_2_);fill:#a0acb8;" d="M87.8,0.7H8.4C4.4,0.7,1.1,4,1.1,8V109c0,4,3.2,7.2,7.2,7.2h79.4
			c4,0,7.2-3.2,7.2-7.2V8C95,4,91.7,0.7,87.8,0.7L87.8,0.7z M87.8,8v52.5c-2.3,1.7-8.2,5.3-18,5.3c-5.2,0-7.9-2.2-11.7-5.3
			c-5-4.1-11.2-9.1-24.4-9.1c-12.5,0-20.4,2.3-25.3,4.5V8H87.8z M8.4,109V63.9c2.5-1.6,9.9-5.4,25.3-5.4c10.6,0,15.1,3.6,19.8,7.5
			c4.2,3.4,8.5,6.9,16.3,6.9c8,0,14-2,18-4.1V109H8.4z M8.4,109"/>
	</g>
</g>
</svg>
