<?xml version="1.0" standalone="no"?><!DOCTYPE svg PUBLIC "-//W3C//DTD SVG 1.1//EN" "http://www.w3.org/Graphics/SVG/1.1/DTD/svg11.dtd"><svg class="icon" width="200px" height="200.00px" viewBox="0 0 1024 1024" version="1.1" xmlns="http://www.w3.org/2000/svg"><path d="M736.26112 536.576C709.12 578.56 670.72 613.376 627.712 642.048c-4.09088 68.096-38.4 131.57888-94.72 172.032-4.59776 3.584-10.24 5.12-15.872 5.12-3.57888 0-7.168-0.512-10.24-2.048a26.83904 26.83904 0 0 1-16.37888-20.48c-4.10112-24.576-15.36-51.712-31.232-79.36-17.92 5.12-35.84 9.22112-52.22912 11.78112-1.53088 0.512-3.072 0.512-4.608 0.512-7.15776 0-14.33088-3.072-19.45088-8.192l-74.24-74.24c-6.14912-6.144-9.22112-15.36-7.68-24.064 3.072-16.384 6.65088-34.304 11.77088-52.224-27.63776-16.384-54.77888-27.136-78.83776-31.232a26.8544 26.8544 0 0 1-20.48-16.384c-3.58912-8.704-2.56-18.432 3.072-26.112 39.93088-56.32 103.41888-90.624 171.52-95.232 28.16-43.008 62.97088-81.408 104.96-108.544 79.872-52.224 174.08-56.32 272.37888-56.32 14.848 0 27.14112 12.288 27.14112 27.136-0.00512 93.69088-4.61824 192.50688-56.32512 272.37888zM527.872 758.784c24.58112-24.064 41.98912-54.784 49.66912-88.064-24.58112 12.8-49.66912 23.04-74.24 32.256 10.74688 18.432 18.93888 37.376 24.57088 55.808zM270.848 501.248c18.432 5.632 36.85888 14.336 55.808 24.576 8.704-24.576 19.456-50.176 31.744-74.752-32.768 8.192-63.488 25.088-87.552 50.176zM522.24 337.92c-87.04 56.832-144.37888 179.2-164.85888 280.064l53.76 53.76c100.85888-20.48 222.72-78.336 279.552-165.376 39.41888-60.416 46.08-136.192 47.09888-215.552-79.872 1.024-155.13088 8.192-215.552 47.104z m79.36 135.168c-25.088 0-45.568-20.48-45.568-45.568s20.48-45.568 45.568-45.568 45.568 20.48 45.568 45.568c-0.50688 25.088-20.48 45.568-45.568 45.568z m-352.768 251.392c5.64224-18.944 23.04-32.256 43.52-32.256 25.088 0 45.568 20.48 45.568 45.56288 0 20.48-13.81888 37.888-32.25088 43.52L240.64 801.28c-1.01888 0-1.53088 0.512-2.56 0.512-5.12 0-9.21088-4.096-9.21088-9.216 0-1.024 0-2.04288 0.512-2.56l19.45088-65.536z" fill="#ffffff" /><path d="M512 0C229.22752 0 0 229.23264 0 512c0 282.78272 229.23264 512 512 512 282.78272 0 512-229.21728 512-512C1024 229.23264 794.7776 0 512 0z m0 961.00864c-247.02464 0-448-201.984-448-449.00864S264.97536 64 512 64s448 200.97536 448 448c0 247.01952-200.98048 449.00864-448 449.00864z" fill="#ffffff" /></svg>