<?xml version="1.0" encoding="utf-8"?>
<!-- Generator: Adobe Illustrator 22.0.1, SVG Export Plug-In . SVG Version: 6.00 Build 0)  -->
<svg version="1.0" id="图层_1" xmlns="http://www.w3.org/2000/svg" xmlns:xlink="http://www.w3.org/1999/xlink" x="0px" y="0px"
	 viewBox="0 0 275 75.5" style="enable-background:new 0 0 275 75.5;" xml:space="preserve">
<rect x="73" y="35.3" style="fill:#FFFFFF;" width="6.8" height="40"/>
<rect x="85.1" y="23.3" style="fill:#FFFFFF;" width="6.8" height="52"/>
<rect x="97.1" y="11.3" style="fill:#FFFFFF;" width="6.8" height="64.1"/>
<rect x="109.1" y="38.4" style="fill:#FFFFFF;" width="6.8" height="37"/>
<rect x="121.1" y="26.3" style="fill:#FFFFFF;" width="6.8" height="49"/>
<rect x="133.1" y="21.4" style="fill:#FFFFFF;" width="6.8" height="53.9"/>
<rect x="145.2" y="43.6" style="fill:#FFFFFF;" width="6.8" height="31.8"/>
<rect x="157.3" y="16.3" style="fill:#FFFFFF;" width="6.8" height="59.1"/>
<rect x="169.3" y="0.2" style="fill:#FFFFFF;" width="6.8" height="75.2"/>
<rect x="181.3" y="35.5" style="fill:#FFFFFF;" width="6.8" height="39.9"/>
<rect x="193.3" y="23.6" style="fill:#FFFFFF;" width="6.8" height="51.7"/>
<rect x="205.3" y="11.7" style="fill:#FFFFFF;" width="6.8" height="63.6"/>
<rect x="217.3" y="38.7" style="fill:#FFFFFF;" width="6.8" height="36.7"/>
<rect x="229.3" y="26.4" style="fill:#FFFFFF;" width="6.8" height="48.9"/>
<rect x="241.3" y="21.3" style="fill:#FFFFFF;" width="6.8" height="54"/>
<rect x="253.3" y="43.5" style="fill:#FFFFFF;" width="6.8" height="31.9"/>
<rect x="265.3" y="16" style="fill:#FFFFFF;" width="6.8" height="59.3"/>
<rect x="1" y="38.2" style="fill:#FFFFFF;" width="6.8" height="37.2"/>
<rect x="13.1" y="26.3" style="fill:#FFFFFF;" width="6.8" height="49.1"/>
<rect x="25.1" y="21.4" style="fill:#FFFFFF;" width="6.8" height="53.9"/>
<rect x="37.1" y="43.2" style="fill:#FFFFFF;" width="6.8" height="32.1"/>
<rect x="49.1" y="16.3" style="fill:#FFFFFF;" width="6.8" height="59"/>
<rect x="61.1" y="0.4" style="fill:#FFFFFF;" width="6.8" height="74.9"/>
</svg>
