<?xml version="1.0" encoding="utf-8"?>
<!-- Generator: Adobe Illustrator 22.0.1, SVG Export Plug-In . SVG Version: 6.00 Build 0)  -->
<svg version="1.0" id="图层_1" xmlns="http://www.w3.org/2000/svg" xmlns:xlink="http://www.w3.org/1999/xlink" x="0px" y="0px"
	 viewBox="0 0 332.1 79.2" style="enable-background:new 0 0 332.1 79.2;" xml:space="preserve">
<path style="fill:none;stroke:#FFFFFF;stroke-width:2;stroke-miterlimit:10;" d="M1.8,5c0,0,31-12.4,59.6,11.4
	c22.8,18.9,84.3,0,92-4.2s25.2-7.3,38.8-6c13.7,1.3,29.3,6.5,44.5,17.8s44.8,20.5,77.8-4.7c0,0,11-9.8,17.2-11"/>
<g id="JLROk1.tif">
</g>
<path style="fill:#FFFFFF;" d="M1.7,5C1.7,5,32-7,61.4,16.3c29.3,23.3,99.3-6.7,99.3-6.7s37.3-14.7,76,14.3s79-5.3,79-5.3
	s12.3-10.3,16-10.3l0.7,70.3H0.4C0.3,78.7,2.5,4.2,1.7,5z"/>
</svg>
