<?xml version="1.0" encoding="utf-8"?>
<!-- Generator: Adobe Illustrator 22.0.1, SVG Export Plug-In . SVG Version: 6.00 Build 0)  -->
<svg version="1.0" id="图层_1" xmlns="http://www.w3.org/2000/svg" xmlns:xlink="http://www.w3.org/1999/xlink" x="0px" y="0px"
	 viewBox="0 0 279.7 80.3" style="enable-background:new 0 0 279.7 80.3;" xml:space="preserve">
<circle style="fill:none;stroke:#FFFFFF;stroke-width:2;stroke-miterlimit:10;" cx="10.1" cy="27.5" r="8.1"/>
<circle style="fill:none;stroke:#FFFFFF;stroke-width:2;stroke-miterlimit:10;" cx="52.6" cy="60" r="8.1"/>
<circle style="fill:none;stroke:#FFFFFF;stroke-width:2;stroke-miterlimit:10;" cx="98.4" cy="12" r="8.1"/>
<circle style="fill:none;stroke:#FFFFFF;stroke-width:2;stroke-miterlimit:10;" cx="153.1" cy="10" r="8.1"/>
<circle style="fill:none;stroke:#FFFFFF;stroke-width:2;stroke-miterlimit:10;" cx="204.1" cy="58.5" r="8.1"/>
<circle style="fill:none;stroke:#FFFFFF;stroke-width:2;stroke-miterlimit:10;" cx="241.6" cy="28.8" r="8.1"/>
<circle style="fill:none;stroke:#FFFFFF;stroke-width:2;stroke-miterlimit:10;" cx="269.9" cy="70.5" r="8.1"/>
<path style="fill:none;stroke:#FFFFFF;stroke-width:2;stroke-miterlimit:10;" d="M16.2,32.2c0,0,12-3.3,17.5,8.5s12,14.8,12,14.8"/>
<path style="fill:none;stroke:#FFFFFF;stroke-width:2;stroke-miterlimit:10;" d="M61,57.2c0,0,19.2-38.8,29.8-42.2"/>
<path style="fill:none;stroke:#FFFFFF;stroke-width:2;stroke-miterlimit:10;" d="M105.8,9.4c0,0,31-5.5,39-1.2"/>
<path style="fill:none;stroke:#FFFFFF;stroke-width:2;stroke-miterlimit:10;" d="M161.2,10c0,0,22.2,16.4,36.8,43.4"/>
<path style="fill:none;stroke:#FFFFFF;stroke-width:2;stroke-miterlimit:10;" d="M211.5,55.7c0,0,8.5,1.5,13.2-6.5
	s2.5-15.8,8.2-17.3"/>
<path style="fill:none;stroke:#FFFFFF;stroke-width:2;stroke-miterlimit:10;" d="M249,31.9c0,0,18.2,17.5,19.8,29.8"/>
</svg>
