<?xml version="1.0" encoding="utf-8"?>
<!-- Generator: Adobe Illustrator 22.0.1, SVG Export Plug-In . SVG Version: 6.00 Build 0)  -->
<svg version="1.0" id="图层_1" xmlns="http://www.w3.org/2000/svg" xmlns:xlink="http://www.w3.org/1999/xlink" x="0px" y="0px"
	 viewBox="0 0 200 200" style="enable-background:new 0 0 200 200;" xml:space="preserve">
<path style="fill:#FFFFFF;" d="M180.1,110.5c-1.4-2.4-4.5-3.1-6.9-1.7L149,123.2l-38.3-22.1L149,79l23.9,13.8
	c0.8,0.5,1.6,0.7,2.5,0.7c1.7,0,3.4-0.9,4.3-2.5c1.4-2.4,0.6-5.4-1.8-6.8L159,73.2l16.3-9.4c2.4-1.4,3.2-4.4,1.8-6.8
	c-1.4-2.4-4.4-3.2-6.8-1.8l-16.4,9.5L153.6,42c0-2.8-2.3-5-5.1-4.9c-2.8,0-5,2.3-4.9,5.1l0.4,28.2l-38.8,22.4V47.3l23.9-13.8
	c2.4-1.4,3.2-4.4,1.8-6.8c-1.4-2.4-4.4-3.2-6.8-1.8l-18.9,10.9V13.2c0-2.8-2.2-5-5-5c-2.8,0-5,2.2-5,5v22.7l-19.7-11
	c-2.4-1.3-5.5-0.5-6.8,1.9c-1.3,2.4-0.5,5.5,1.9,6.8l24.6,13.8v44.9L55.8,69.4V41.8c0-2.8-2.2-5-5-5s-5,2.2-5,5v21.8L25,51.6
	c-2.4-1.4-5.4-0.6-6.8,1.8c-1.4,2.4-0.6,5.4,1.8,6.8l20.9,12.1L21.4,83.9c-2.4,1.4-3.1,4.5-1.7,6.9c0.9,1.6,2.6,2.4,4.3,2.4
	c0.9,0,1.8-0.2,2.6-0.7l24.2-14.4l39.9,23l-39.9,23l-23.9-13.8c-2.4-1.4-5.4-0.6-6.8,1.8c-1.4,2.4-0.6,5.4,1.8,6.8l18.9,10.9
	l-16.9,9.8c-2.4,1.4-3.2,4.4-1.8,6.8c0.9,1.6,2.6,2.5,4.3,2.5c0.8,0,1.7-0.2,2.5-0.7l17-9.8l0.3,22.6c0,2.7,2.3,4.9,5,4.9
	c0,0,0,0,0.1,0c2.8,0,5-2.3,4.9-5.1l-0.4-28.2L95.3,110v44.9l-23.9,13.8c-2.4,1.4-3.2,4.4-1.8,6.8c0.9,1.6,2.6,2.5,4.3,2.5
	c0.8,0,1.7-0.2,2.5-0.7l18.9-10.9v22.6c0,2.8,2.2,5,5,5c2.8,0,5-2.2,5-5v-22.7l19.7,11c0.8,0.4,1.6,0.6,2.4,0.6
	c1.8,0,3.5-0.9,4.4-2.6c1.3-2.4,0.5-5.5-1.9-6.8l-24.6-13.8v-45.4l38.8,22.4v27.6c0,2.8,2.2,5,5,5s5-2.2,5-5v-21.8l17.3,10
	c0.8,0.5,1.6,0.7,2.5,0.7c1.7,0,3.4-0.9,4.3-2.5c1.4-2.4,0.6-5.4-1.8-6.8l-17.3-10l19.4-11.6C180.7,116,181.5,112.9,180.1,110.5z"/>
</svg>
