<?xml version="1.0" encoding="utf-8"?>
<!-- Generator: Adobe Illustrator 22.0.1, SVG Export Plug-In . SVG Version: 6.00 Build 0)  -->
<svg version="1.0" id="图层_1" xmlns="http://www.w3.org/2000/svg" xmlns:xlink="http://www.w3.org/1999/xlink" x="0px" y="0px"
	 viewBox="0 0 200 200" style="enable-background:new 0 0 200 200;" xml:space="preserve">
<path style="fill:#FFFFFF;" d="M100,2.5C46.2,2.5,2.5,46.2,2.5,100s43.8,97.5,97.5,97.5s97.5-43.8,97.5-97.5S153.8,2.5,100,2.5z
	 M100,188.8c-48.8,0-88.8-40-88.8-88.8s40-88.8,88.8-88.8s88.8,40,88.8,88.8S148.8,188.8,100,188.8z M162.5,106.2h-36.2l-5-16.2
	c0-1.2-1.2-2.5-2.5-2.5s-2.5,0-2.5,1.2L98.8,115L81.2,76.2c0-1.2-1.2-2.5-2.5-2.5S76.2,75,75,75L58.7,96.2H36.2
	c-1.2,0-2.5,1.2-2.5,3.8c0,1.3,1.2,3.8,2.5,3.8h25c2.5,0,3.8-1.2,3.8-1.2l12.5-16.3l17.5,40c0,1.3,1.2,2.5,2.5,2.5l0,0
	c1.2,0,3.8,0,3.8-1.2l16.2-27.5l2.5,11.2c1.3,1.3,2.5,1.3,3.8,1.3h40c1.2,0,2.5-1.3,2.5-3.8C166.2,107.5,165,106.2,162.5,106.2z
	 M96.2,93.8l15-18.8h-7.5l1.3-15L91.2,78.8h7.5L96.2,93.8z"/>
</svg>
