<?xml version="1.0" encoding="utf-8"?>
<!-- Generator: Adobe Illustrator 22.0.1, SVG Export Plug-In . SVG Version: 6.00 Build 0)  -->
<svg version="1.0" id="图层_1" xmlns="http://www.w3.org/2000/svg" xmlns:xlink="http://www.w3.org/1999/xlink" x="0px" y="0px"
	 viewBox="0 0 200 200" style="enable-background:new 0 0 200 200;" xml:space="preserve">
<path style="fill:#FFFFFF;" d="M30,70.1C30,70,170,70,170,70V29.9C170,30,30,30,30,30S30,70.1,30,70.1z M21.3,125
	c-0.9-1.5-1.3-3.2-1.3-4.9V79.9c0-1.8,0.5-3.5,1.3-4.9c-0.9-1.5-1.3-3.2-1.3-4.9V29.9c0-5.5,4.5-9.9,10-9.9h140 c5.5,0,9.9,4.4,10,9.9v40.2c0,1.7-0.5,3.4-1.3,4.9c0.9,1.5,1.3,3.2,1.3,4.9v40.2c0,1.8-0.5,3.5-1.3,4.9c0.9,1.5,1.3,3.2,1.3,4.9
	v40.2c0,5.5-4.4,9.9-10,9.9H30c-5.5,0-9.9-4.4-10-9.9v-40.2C20,128.2,20.5,126.5,21.3,125L21.3,125z M30,170.1
	c0-0.1,140-0.1,140-0.1v-40.1c0,0.1-140,0.1-140,0.1L30,170.1L30,170.1z M30,120.1c0-0.1,140-0.1,140-0.1V79.9C170,80,30,80,30,80
	L30,120.1L30,120.1z"/>
<path style="fill:#FFFFFF;" d="M45,50c2.8,0,5-2.2,5-5c0-2.8-2.2-5-5-5c0,0,0,0,0,0c-2.8,0-5,2.2-5,5C40,47.8,42.2,50,45,50z M65,50
	c2.8,0,5-2.2,5-5c0-2.8-2.2-5-5-5c0,0,0,0,0,0c-2.8,0-5,2.2-5,5C60,47.8,62.2,50,65,50z M100,45c0-2.7,2.2-5,4.9-5h50.2
	c2.8,0,5,2.2,5,5c0,2.8-2.2,5-5,5h-50.2C102.2,50,100,47.7,100,45z M45,100c2.8,0,5-2.2,5-5s-2.2-5-5-5c-2.8,0-5,2.2-5,5
	S42.2,100,45,100z M65,100c2.8,0,5-2.2,5-5s-2.2-5-5-5c-2.8,0-5,2.2-5,5S62.2,100,65,100z M100,95c0-2.7,2.2-5,4.9-5h50.2
	c2.8,0,5,2.2,5,5s-2.2,5-5,5h-50.2C102.2,100,100,97.7,100,95z M45,150c2.8,0,5-2.2,5-5s-2.2-5-5-5c-2.8,0-5,2.2-5,5
	S42.2,150,45,150z M65,150c2.8,0,5-2.2,5-5s-2.2-5-5-5c-2.8,0-5,2.2-5,5S62.2,150,65,150z M100,145c0-2.7,2.2-5,4.9-5h50.2
	c2.8,0,5,2.2,5,5c0,2.8-2.2,5-5,5h-50.2C102.2,150,100,147.7,100,145z"/>
</svg>
