<?xml version="1.0" encoding="utf-8"?>
<!-- Generator: Adobe Illustrator 18.0.0, SVG Export Plug-In . SVG Version: 6.00 Build 0)  -->
<!DOCTYPE svg PUBLIC "-//W3C//DTD SVG 1.1//EN" "http://www.w3.org/Graphics/SVG/1.1/DTD/svg11.dtd">
<svg version="1.1" xmlns="http://www.w3.org/2000/svg" xmlns:xlink="http://www.w3.org/1999/xlink" x="0px" y="0px"
	 width="2153.6px" height="1847.6px" viewBox="0 0 2153.6 1847.6" enable-background="new 0 0 2153.6 1847.6" xml:space="preserve">

<g id="底座">
</g>
<g id="整体房子">
	<rect x="459.4" y="1630.1" fill="#7C7B7C" width="1248.1" height="46.3"/>
	<rect x="518.1" y="1595.8" fill="#7C7B7C" width="1127.3" height="38.5"/>
	<path fill="#7C7B7C" d="M1362.8,818.8V325.6L951.3,188.5L518.1,331.9v1267.2h433.3h411.3h282.7V913.6L1362.8,818.8z M709.8,1526.8
		H604.3v-134.6l105.5-6.9V1526.8z M709.8,1293.9l-105.5,15.9v-134.6l105.5-22.5V1293.9z M709.8,1035.5l-105.5,26V916.8l105.5-32.7
		V1035.5z M709.8,771.8l-105.5,26V653.1l105.5-32.7V771.8z M709.8,521.7l-105.5,26V403l105.5-32.7V521.7z M874.8,1523.2H769.4
		v-134.6l105.5-6.9V1523.2z M874.8,1272.6l-105.5,17v-144.2l105.5-24.1V1272.6z M874.8,1007.6l-105.5,27.1V884l105.5-34V1007.6z
		 M874.8,742.3l-105.5,28V614.5l105.5-35.2V742.3z M874.8,481.2l-105.5,28.4V351.5l105.5-35.7V481.2z M1227.2,353.4l88,20.3v144.7
		l-88-20.3V353.4z M1227.2,606.1l88,10.7V769l-88-13V606.1z M1227.2,871.2l88,11v157.1l-88-13.4V871.2z M1044.4,1130l105.5-2.9
		v140.5h-105.5V1130z M1154.1,1516h-105.5v-134.6h105.5V1516z M1154.1,1009.3h-105.5V856.1h105.5V1009.3z M1154.1,745.9l-105.5-20.3
		V570.7l105.5,20.3V745.9z M1154.1,479.3L1048.6,459V304.1l105.5,30.5V479.3z M1216,1136.6l96.1-2.1v133H1216V1136.6z M1316.3,1516
		h-96.1v-134.6h96.1V1516z M1468,1516h-84.3v-126.3l84.3-2.4V1516z M1468,1271.6h-81V1147l81-3.4V1271.6z M1471.5,1058.5l-88-12.5
		V901.7l88,10.3V1058.5z M1598.7,1516h-69.1v-117.8l69.1-0.9V1516z M1598.7,1274.8h-73.4v-120.4l73.4-3.4V1274.8z M1598.7,1077.9
		l-75.4-11.8V927.8l75.4,11.6V1077.9z"/>
</g>
<g id="第一层" display="none">
	<polygon display="inline" fill="#CF201D" points="1645.4,1599.1 518.1,1599.1 518.1,1360.3 951.5,1325.1 1645.4,1345.4 	"/>
</g>
<g id="第二层" display="none">
	<polygon display="inline" fill="#CF201D" points="1645.4,1345.4 951.5,1325.1 518.1,1360.3 518,1135.5 951.3,1049 1645.4,1107.9
		"/>
</g>
<g id="第三层" display="none">
	<polygon display="inline" fill="#CF201D" points="1645.4,1107.9 951.3,1049 518.1,1135.4 518.1,875 951.3,784.9 1362.8,818.8
		1645.5,912 	"/>
</g>
<g id="第四层" display="none">
	<polygon display="inline" fill="#CF201D" points="1362.8,818.8 951.3,784.9 518.1,875 518.1,624.8 951.3,514.7 1362.8,582.8 	"/>
</g>
<g id="第五层" display="none">
	<path display="inline" fill="#CF201D" d="M1362.8,582.8l-411.5-68.1c-0.2,0.2,0,0,0,0L518.1,624.8V331.9l433.2-143.4l411.5,137.1
		V582.8z"/>
</g>
<g id="窗户">
	<polygon fill="#FFFFFF" points="709.8,521.7 604.3,547.7 604.3,403 709.8,370.3 	"/>
	<polygon fill="#FFFFFF" points="709.8,771.8 604.3,797.8 604.3,653.1 709.8,620.4 	"/>
	<polygon fill="#FFFFFF" points="706.2,1032 600.8,1058 600.8,913.3 706.2,880.6 	"/>
	<polygon fill="#FFFFFF" points="874.8,481.2 769.3,509.7 769.3,351.5 874.8,315.7 	"/>
	<polygon fill="#FFFFFF" points="874.8,742.3 769.3,770.3 769.3,614.6 874.8,579.4 	"/>
	<polygon fill="#FFFFFF" points="874.8,1007.6 769.3,1034.7 769.3,884.1 874.8,850 	"/>
	<polygon fill="#FFFFFF" points="871.3,1269.1 765.8,1286.1 765.8,1141.9 871.3,1117.7 	"/>
	<polygon fill="#FFFFFF" points="706.2,1290.4 600.8,1306.2 600.8,1171.7 706.2,1149.1 	"/>
	<polygon fill="#FFFFFF" points="874.8,1523.2 769.3,1523.2 769.3,1388.7 874.8,1381.8 	"/>
	<rect x="1048.6" y="1381.4" fill="#FFFFFF" width="105.5" height="134.6"/>
	<rect x="1220.2" y="1381.4" fill="#FFFFFF" width="96.1" height="134.6"/>
	<polygon fill="#FFFFFF" points="1468,1516 1383.7,1516 1383.7,1389.7 1468,1387.3 	"/>
	<polygon fill="#FFFFFF" points="1598.7,1516 1529.6,1516 1529.6,1398.2 1598.7,1397.4 	"/>
	<polygon fill="#FFFFFF" points="1146.3,1264 1040.9,1264 1040.9,1126.4 1146.3,1123.5 	"/>
	<rect x="1048.6" y="856.1" fill="#FFFFFF" width="105.5" height="153.2"/>
	<polygon fill="#FFFFFF" points="1154.1,479.3 1048.6,459 1048.6,304.2 1154.1,334.6 	"/>
	<polygon fill="#FFFFFF" points="1315.2,518.5 1227.2,498.2 1227.2,353.5 1315.2,373.8 	"/>
	<polygon fill="#FFFFFF" points="1315.2,769 1227.2,756 1227.2,606.1 1315.2,616.8 	"/>
	<polygon fill="#FFFFFF" points="1315.2,1039.3 1227.2,1026 1227.2,871.2 1315.2,882.2 	"/>
	<polygon fill="#FFFFFF" points="1471.5,1058.5 1383.5,1046.1 1383.5,901.7 1471.5,912 	"/>
	<polygon fill="#FFFFFF" points="1598.7,1077.9 1523.3,1066.1 1523.3,927.8 1598.7,939.4 	"/>
	<polygon fill="#FFFFFF" points="1154.1,745.9 1048.6,725.6 1048.6,570.7 1154.1,591.1 	"/>
	<polygon fill="#FFFFFF" points="1308.5,1264 1212.5,1264 1212.5,1133 1308.5,1131 	"/>
	<polygon fill="#FFFFFF" points="1464.4,1268.1 1383.4,1268.1 1383.4,1143.5 1464.4,1140.1 	"/>
	<polygon fill="#FFFFFF" points="1595.1,1271.3 1521.8,1271.3 1521.8,1150.9 1595.1,1147.5 	"/>
	<polygon fill="#FFFFFF" points="709.8,1526.9 604.3,1526.9 604.3,1392.3 709.8,1385.4 	"/>
</g>
</svg>
