<?xml version="1.0" encoding="utf-8"?>
<!-- Generator: Adobe Illustrator 18.0.0, SVG Export Plug-In . SVG Version: 6.00 Build 0)  -->
<!DOCTYPE svg PUBLIC "-//W3C//DTD SVG 1.1//EN" "http://www.w3.org/Graphics/SVG/1.1/DTD/svg11.dtd">
<svg version="1.1" xmlns="http://www.w3.org/2000/svg" xmlns:xlink="http://www.w3.org/1999/xlink" x="0px" y="0px"
	 width="1922.2px" height="1045.1px" viewBox="0 0 1922.2 1045.1" preserveAspectRatio="xMidYMid slice" enable-background="new 0 0 1922.2 1045.1" xml:space="preserve">

<g id="外轮廓">
	<rect x="570" y="135.2" fill="#8E8E8E" width="195.2" height="0.5"/>
	<rect x="765" y="135.2" fill="#8E8E8E" width="0.5" height="20.2"/>
	<rect x="767.9" y="131.9" fill="#8E8E8E" width="0.5" height="23.1"/>
	<rect x="567" y="131.9" fill="#8E8E8E" width="0.5" height="147"/>
	<rect x="570" y="135.2" fill="#8E8E8E" width="0.5" height="147"/>
	<rect x="435" y="265" fill="#8E8E8E" width="0.5" height="295.1"/>
	<rect x="438.5" y="268.3" fill="#8E8E8E" width="0.5" height="278.8"/>
	<rect x="567" y="131.9" fill="#8E8E8E" width="201.2" height="0.5"/>
	<rect x="438.5" y="281.7" fill="#8E8E8E" width="132" height="0.5"/>
	<rect x="435" y="278.4" fill="#8E8E8E" width="132.5" height="0.5"/>
	<rect x="379.7" y="488" fill="#8E8E8E" width="55.6" height="0.5"/>
	<rect x="376.1" y="559.6" fill="#8E8E8E" width="134.8" height="0.5"/>
	<rect x="379.7" y="562.2" fill="#8E8E8E" width="97.7" height="0.5"/>
	<rect x="389.4" y="559.8" fill="#8E8E8E" width="0.5" height="58.9"/>
	<rect x="394" y="560" fill="#8E8E8E" width="0.5" height="58.7"/>
	<rect x="398.3" y="560" fill="#8E8E8E" width="0.5" height="58.7"/>

		<rect x="373.6" y="589.1" transform="matrix(4.942353e-003 1 -1 4.942353e-003 990.3192 183.4771)" fill="#8E8E8E" width="58.7" height="0.5"/>
	<rect x="407.2" y="560" fill="#8E8E8E" width="0.5" height="58.7"/>
	<rect x="411.9" y="560" fill="#8E8E8E" width="0.5" height="58.7"/>
	<rect x="416.3" y="560" fill="#8E8E8E" width="0.5" height="58.7"/>
	<rect x="375.9" y="618.5" fill="#8E8E8E" width="0.5" height="75.1"/>
	<rect x="379.2" y="615.8" fill="#8E8E8E" width="0.5" height="74.5"/>
	<rect x="1006" y="596.4" fill="#8E8E8E" width="61.9" height="0.5"/>
	<rect x="1006" y="550.3" fill="#8E8E8E" width="0.5" height="70.9"/>
	<rect x="1270.6" y="689.2" fill="#8E8E8E" width="0.5" height="41.2"/>
	<rect x="1316.9" y="729.9" fill="#8E8E8E" width="0.5" height="22.3"/>
	<rect x="1280" y="751.8" fill="#8E8E8E" width="0.5" height="12.7"/>
	<rect x="1241.2" y="727.9" fill="#8E8E8E" width="14.9" height="0.5"/>
	<rect x="1241.2" y="727.9" fill="#8E8E8E" width="0.5" height="26.9"/>
	<rect x="1255.6" y="727.9" fill="#8E8E8E" width="0.5" height="26.9"/>

		<rect x="1250.9" y="740" transform="matrix(-0.7071 -0.7071 0.7071 -0.7071 1641.2422 2160.2825)" fill="#8E8E8E" width="34.3" height="0.5"/>

		<rect x="1212" y="740" transform="matrix(0.7071 -0.7071 0.7071 0.7071 -163.4193 1085.9742)" fill="#8E8E8E" width="34.4" height="0.5"/>
	<rect x="1216.7" y="751.6" fill="#8E8E8E" width="0.5" height="12.7"/>
	<rect x="1216.7" y="764" fill="#8E8E8E" width="63.7" height="0.5"/>
	<rect x="1015" y="727.6" fill="#8E8E8E" width="0.5" height="24.5"/>
	<rect x="1009.9" y="727.6" fill="#8E8E8E" width="0.5" height="24.5"/>
	<rect x="1005.2" y="727.6" fill="#8E8E8E" width="0.5" height="24.5"/>
	<rect x="1000.2" y="727.6" fill="#8E8E8E" width="0.5" height="24.5"/>
	<rect x="995.5" y="727.6" fill="#8E8E8E" width="0.5" height="24.5"/>
	<rect x="990.4" y="727.6" fill="#8E8E8E" width="0.5" height="24.5"/>
	<rect x="990.4" y="739.2" fill="#8E8E8E" width="25" height="0.5"/>
	<rect x="1280" y="751.8" fill="#8E8E8E" width="37.4" height="0.5"/>
	<rect x="1270.6" y="729.9" fill="#8E8E8E" width="46.8" height="0.5"/>
	<rect x="1226.3" y="689.2" fill="#8E8E8E" width="0.5" height="38.8"/>
	<rect x="1202" y="689.2" fill="#8E8E8E" width="0.5" height="24.8"/>
	<rect x="1435.2" y="673.6" fill="#8E8E8E" width="25" height="0.5"/>
	<rect x="1435.2" y="499.6" fill="#8E8E8E" width="25" height="0.5"/>
	<rect x="941.5" y="620.7" fill="#8E8E8E" width="126.4" height="0.5"/>
	<rect x="435.4" y="618.6" fill="#8E8E8E" width="0.5" height="107.6"/>
	<rect x="438.4" y="631.5" fill="#8E8E8E" width="0.5" height="58.9"/>
	<rect x="438.4" y="693.2" fill="#8E8E8E" width="0.5" height="33"/>
	<rect x="941.6" y="841.8" fill="#8E8E8E" width="24.9" height="0.5"/>
	<rect x="941.6" y="846.6" fill="#8E8E8E" width="24.9" height="0.5"/>
	<rect x="941.6" y="851.4" fill="#8E8E8E" width="24.9" height="0.5"/>
	<rect x="941.5" y="866.3" fill="#8E8E8E" width="24.9" height="0.5"/>
	<rect x="941.6" y="861.2" fill="#8E8E8E" width="24.9" height="0.5"/>
	<rect x="941.6" y="856.3" fill="#8E8E8E" width="24.9" height="0.5"/>
	<rect x="953.7" y="846.6" fill="#8E8E8E" width="0.5" height="20.2"/>
	<rect x="845.3" y="801.4" fill="#8E8E8E" width="0.5" height="32.3"/>
	<rect x="926.2" y="882.3" fill="#8E8E8E" width="0.3" height="25.1"/>
	<rect x="966" y="620.9" fill="#8E8E8E" width="0.5" height="286.7"/>
	<rect x="942" y="727.6" fill="#8E8E8E" width="284.8" height="0.5"/>
	<rect x="1043.3" y="713.6" fill="#8E8E8E" width="183.4" height="0.5"/>
	<rect x="1043.3" y="689.2" fill="#8E8E8E" width="273.9" height="0.5"/>
	<rect x="1067.3" y="596.5" fill="#8E8E8E" width="0.5" height="117.5"/>
	<rect x="1043.3" y="596.6" fill="#8E8E8E" width="0.5" height="117.5"/>
	<rect x="1067.6" y="685.9" fill="#8E8E8E" width="249.6" height="0.5"/>
	<rect x="942" y="751.6" fill="#8E8E8E" width="275.6" height="0.5"/>
	<rect x="820.4" y="833.3" fill="#8E8E8E" width="146" height="0.5"/>
	<rect x="820.4" y="801.4" fill="#8E8E8E" width="146" height="0.5"/>
	<rect x="941.5" y="620.7" fill="#8E8E8E" width="0.5" height="262"/>
	<rect x="438.7" y="722.6" fill="#8E8E8E" width="24.6" height="0.5"/>
	<rect x="435.4" y="725.7" fill="#8E8E8E" width="29.6" height="0.5"/>
	<rect x="441.3" y="559.9" fill="#8E8E8E" width="0.5" height="58.7"/>
	<rect x="445.9" y="560.1" fill="#8E8E8E" width="0.5" height="58.5"/>
	<rect x="450.2" y="560.1" fill="#8E8E8E" width="0.5" height="58.6"/>
	<rect x="454.6" y="560.1" fill="#8E8E8E" width="0.5" height="58.6"/>
	<rect x="459.1" y="560.1" fill="#8E8E8E" width="0.5" height="58.6"/>

		<rect x="434.8" y="589.1" transform="matrix(-7.906397e-004 1 -1 -7.906397e-004 1053.7932 125.7939)" fill="#8E8E8E" width="58.6" height="0.5"/>
	<rect x="468.2" y="560.1" fill="#8E8E8E" width="0.5" height="58.6"/>
	<rect x="472.3" y="559.9" fill="#8E8E8E" width="0.5" height="58.8"/>
	<rect x="476.9" y="559.9" fill="#8E8E8E" width="0.5" height="58.8"/>
	<rect x="557.8" y="561.6" fill="#C9C9C9" width="0.5" height="58.8"/>
	<rect x="562.8" y="562.2" fill="#C9C9C9" width="0.5" height="58.8"/>
	<rect x="570.2" y="561.6" fill="#C9C9C9" width="0.5" height="58.8"/>
	<rect x="578" y="561.6" fill="#C9C9C9" width="0.5" height="58.8"/>
	<rect x="586.2" y="561.6" fill="#C9C9C9" width="0.5" height="58.8"/>
	<rect x="711.6" y="319" fill="#C9C9C9" width="0.5" height="33.6"/>
	<rect x="709.1" y="319" fill="#C9C9C9" width="0.5" height="33.6"/>
	<rect x="706.5" y="319" fill="#C9C9C9" width="0.5" height="33.6"/>
	<rect x="703.9" y="319" fill="#C9C9C9" width="0.5" height="33.6"/>
	<rect x="714" y="318.8" fill="#C9C9C9" width="0.5" height="33.6"/>
	<rect x="700.7" y="321.9" fill="#C9C9C9" width="21.9" height="0.5"/>
	<rect x="700.7" y="324.3" fill="#C9C9C9" width="21.9" height="0.5"/>
	<rect x="700.7" y="326.6" fill="#C9C9C9" width="21.9" height="0.5"/>
	<rect x="700.8" y="329.3" fill="#C9C9C9" width="21.9" height="0.5"/>
	<rect x="700.8" y="332.1" fill="#C9C9C9" width="21.9" height="0.5"/>
	<rect x="700.7" y="334.2" fill="#C9C9C9" width="21.9" height="0.5"/>
	<rect x="700.8" y="336.5" fill="#C9C9C9" width="21.9" height="0.5"/>
	<rect x="700.7" y="338.6" fill="#C9C9C9" width="21.9" height="0.5"/>
	<rect x="700.8" y="340.8" fill="#C9C9C9" width="21.9" height="0.5"/>
	<rect x="700.9" y="342.7" fill="#C9C9C9" width="21.9" height="0.5"/>
	<rect x="700.9" y="344.7" fill="#C9C9C9" width="21.9" height="0.5"/>
	<rect x="700.9" y="346.8" fill="#C9C9C9" width="21.9" height="0.5"/>
	<rect x="700.9" y="349.2" fill="#C9C9C9" width="21.9" height="0.5"/>
	<rect x="716.5" y="318.8" fill="#C9C9C9" width="0.5" height="33.6"/>
	<rect x="719" y="318.6" fill="#C9C9C9" width="0.5" height="33.6"/>
	<rect x="595" y="561.6" fill="#C9C9C9" width="0.5" height="58.8"/>
	<rect x="602.7" y="561.6" fill="#C9C9C9" width="0.5" height="58.8"/>
	<rect x="611" y="561.6" fill="#C9C9C9" width="0.5" height="58.8"/>
	<rect x="619" y="561.6" fill="#C9C9C9" width="0.5" height="71.3"/>
	<rect x="627.4" y="561.6" fill="#C9C9C9" width="0.5" height="71.3"/>
	<rect x="635.2" y="561.6" fill="#C9C9C9" width="0.5" height="71.3"/>
	<rect x="643.6" y="561.6" fill="#C9C9C9" width="0.5" height="71.3"/>
	<rect x="651.4" y="542.5" fill="#C9C9C9" width="0.5" height="90.4"/>
	<rect x="659.6" y="542.3" fill="#C9C9C9" width="0.5" height="78.1"/>
	<rect x="667.9" y="542.3" fill="#C9C9C9" width="0.5" height="78.1"/>
	<rect x="675.8" y="537.6" fill="#C9C9C9" width="0.5" height="82.2"/>
	<rect x="684.3" y="537.6" fill="#C9C9C9" width="0.5" height="81.5"/>
	<rect x="692.5" y="542.2" fill="#C9C9C9" width="0.5" height="76.9"/>
	<rect x="700.4" y="542.2" fill="#C9C9C9" width="0.5" height="86"/>
	<rect x="708.8" y="537.6" fill="#C9C9C9" width="0.5" height="90.7"/>
	<rect x="716.5" y="536.9" fill="#C9C9C9" width="0.5" height="91.3"/>
	<rect x="724.5" y="541.5" fill="#C9C9C9" width="0.5" height="86.7"/>
	<rect x="732.6" y="541.3" fill="#C9C9C9" width="0.5" height="86.9"/>
	<rect x="741.4" y="467.9" fill="#C9C9C9" width="0.5" height="160.3"/>
	<rect x="553.1" y="561.4" fill="#C9C9C9" width="312.5" height="0.5"/>
	<rect x="552.6" y="567.5" fill="#C9C9C9" width="312.5" height="0.5"/>
	<rect x="553.1" y="573.9" fill="#C9C9C9" width="312.5" height="0.5"/>
	<rect x="553.1" y="580.4" fill="#C9C9C9" width="312.5" height="0.5"/>
	<rect x="553.1" y="587.1" fill="#C9C9C9" width="312.5" height="0.5"/>
	<rect x="552.8" y="593.4" fill="#C9C9C9" width="312.5" height="0.5"/>
	<rect x="553" y="599.7" fill="#C9C9C9" width="312.5" height="0.5"/>
	<rect x="553.1" y="605.6" fill="#C9C9C9" width="312.5" height="0.5"/>
	<rect x="554.1" y="611.3" fill="#C9C9C9" width="312.5" height="0.5"/>
	<rect x="554.7" y="617.2" fill="#C9C9C9" width="312.5" height="0.5"/>
	<rect x="555.2" y="623.2" fill="#C9C9C9" width="312.5" height="0.5"/>
	<rect x="554.1" y="554.5" fill="#C9C9C9" width="312.5" height="0.5"/>
	<rect x="553.1" y="548.6" fill="#C9C9C9" width="312.5" height="0.5"/>
	<rect x="555.8" y="541.1" fill="#C9C9C9" width="312.5" height="0.5"/>
	<rect x="749" y="533.4" fill="#C9C9C9" width="0.5" height="85.7"/>
	<rect x="757.3" y="531.9" fill="#C9C9C9" width="0.5" height="89.3"/>
	<rect x="765.7" y="539.6" fill="#C9C9C9" width="0.5" height="81.5"/>
	<rect x="773.2" y="559.3" fill="#C9C9C9" width="0.5" height="58.8"/>
	<rect x="781.7" y="559.3" fill="#C9C9C9" width="0.5" height="58.8"/>
	<rect x="790.1" y="558.7" fill="#C9C9C9" width="0.5" height="58.8"/>
	<rect x="798.2" y="558" fill="#C9C9C9" width="0.5" height="58.8"/>
	<rect x="806.5" y="558" fill="#C9C9C9" width="0.5" height="58.8"/>
	<rect x="814.4" y="558" fill="#C9C9C9" width="0.5" height="58.8"/>
	<rect x="822.6" y="558" fill="#C9C9C9" width="0.5" height="139.7"/>
	<rect x="830.8" y="557.1" fill="#C9C9C9" width="0.5" height="140.8"/>
	<rect x="838.6" y="556.3" fill="#C9C9C9" width="0.5" height="141.6"/>
	<rect x="846.8" y="555.6" fill="#C9C9C9" width="0.5" height="58.8"/>
	<rect x="855.2" y="555.6" fill="#C9C9C9" width="0.5" height="58.8"/>
	<rect x="1435.2" y="533.8" fill="#8E8E8E" width="0.5" height="140.3"/>
	<rect x="1459.7" y="499.6" fill="#8E8E8E" width="0.5" height="174.5"/>
	<rect x="1459.9" y="331.6" fill="#8E8E8E" width="0.5" height="168"/>
	<rect x="379.7" y="589.1" fill="#8E8E8E" width="97.7" height="0.5"/>
	<rect x="379.7" y="615.9" fill="#8E8E8E" width="97.7" height="0.5"/>
	<rect x="376" y="618.5" fill="#8E8E8E" width="134.8" height="0.5"/>
	<rect x="379.3" y="690" fill="#8E8E8E" width="175.1" height="0.5"/>
	<rect x="375.9" y="693.2" fill="#8E8E8E" width="178.4" height="0.5"/>
	<rect x="569.7" y="882.3" fill="#8E8E8E" width="372.3" height="0.5"/>
	<rect x="569.7" y="907.2" fill="#8E8E8E" width="396.9" height="0.5"/>
	<rect x="376" y="546.9" fill="#8E8E8E" width="0.5" height="13.2"/>
	<rect x="376.4" y="485.3" fill="#8E8E8E" width="59" height="0.5"/>
	<rect x="379.7" y="488.1" fill="#8E8E8E" width="0.5" height="58.8"/>
	<rect x="350.5" y="485.4" fill="#8E8E8E" width="0.5" height="48.2"/>
	<rect x="329.6" y="533.6" fill="#8E8E8E" width="225.3" height="0.5"/>
	<rect x="329.6" y="485.3" fill="#8E8E8E" width="21.4" height="0.5"/>
	<rect x="329.6" y="546.6" fill="#8E8E8E" width="225.2" height="0.5"/>
	<rect x="329.7" y="631.2" fill="#8E8E8E" width="225.4" height="0.5"/>
	<rect x="329.6" y="693.2" fill="#8E8E8E" width="21.4" height="0.5"/>
	<rect x="376.4" y="485.4" fill="#8E8E8E" width="0.5" height="61.6"/>
	<rect x="329.6" y="485.3" fill="#8E8E8E" width="0.5" height="48.3"/>
	<rect x="350.5" y="533.3" fill="#8E8E8E" width="0.5" height="61.9"/>
	<rect x="329.6" y="533.3" fill="#8E8E8E" width="0.5" height="61.8"/>
	<rect x="350.5" y="594.3" fill="#8E8E8E" width="0.5" height="99.5"/>
	<rect x="329.6" y="594.3" fill="#8E8E8E" width="0.5" height="99.5"/>
</g>
<g id="亮蓝色">
		<rect x="723.7" y="241.5" fill="#AFD8E0" stroke="#040000" stroke-width="3" stroke-miterlimit="10" width="711.4" height="292.3"/>
</g>
<g id="胭脂红">
	<path id="room-2" d="M724.6,473.5v-44.9h8.8v-28.8h-11.3v-42.6h11.3
		v-43H554.9v248.1h88v-21.3h27.4v-4.7h19.2v4.7h10.9v-4.7H719v4.7h14.4v-67.4H724.6z M699.9,353.4v-35.1h23.2v35.1H699.9z"/>
</g>
<g id="暗红粉">
	<polygon id="room-4" points="864.6,350 864.6,335.6 867.8,335.6
		867.8,266.5 764.2,266.5 764.2,173.3 762.9,173.3 762.9,179 714.7,179 714.7,173.3 704.1,173.3 704.1,179 631.3,179 631.3,173.3
		614.7,173.3 614.7,191.9 620.9,191.9 620.9,240 614.7,240 614.7,249.8 619.6,249.8 619.6,297.9 614.7,297.9 614.7,312.9
		735.8,312.9 735.8,299.3 763.9,299.3 763.9,356.1 773.2,356.1 773.2,364.8 867.8,364.8 867.8,350 	"/>
</g>
<g id="暗银色">
	<polygon id="room-5" points="766.3,154.5 766.3,266.7 870.3,266.7
		870.3,263.4 866.4,263.4 866.4,248.1 870.3,248.1 870.3,245.3 891.2,245.3 891.2,257.3 897.9,257.3 897.9,272.7 891.2,272.7
		891.2,276.8 959.8,276.8 959.8,154.5 	"/>
</g>
<g id="墨绿色">
	<polygon id="room-6" points="952.2,135.2 952.2,153.4 961.7,153.4
		961.7,276.8 952.2,276.8 891.8,276.8 891.8,345.5 894.3,345.5 894.3,360.5 891.8,360.5 891.8,364.5 937.3,364.5 937.3,361.2
		984.8,361.2 984.8,364.5 985.3,364.5 985.3,364.8 1038.3,364.8 1038.3,359.5 1058,359.5 1058,364.8 1078.6,364.8 1078.6,360.6
		1093.5,360.6 1093.5,364.8 1097.1,364.8 1097.1,135.2 	"/>
</g>
<g id="暗紫色">
	<polygon id="room-7" points="1330,276.2 1330,269 1323.9,269
		1323.9,218.2 1330,218.2 1330,144.4 1097.4,144.4 1097.4,364.4 1153,364.4 1153,356.9 1203.6,356.9 1203.6,364.4 1330,364.4
		1377.4,364.4 1377.4,276.2 	"/>
</g>
<g id="亮黄色">
	<polygon id="room-8" points="1592.6,299.9 1592.6,176.5 1572,176.5
		1572,187.1 1473.3,187.1 1473.3,176.5 1455.1,176.5 1455.1,136 1331.4,136 1331.4,279.3 1377.4,279.3 1377.4,330.4 1452.6,330.4
		1470.2,330.4 1474.7,330.4 1474.7,323.9 1573.3,323.9 1573.3,330.4 1592.6,330.4 1592.6,316.1 1576.6,316.1 1576.6,299.9 	"/>
</g>
<g id="暗黄色">
	<polygon fill="#E0E379" stroke="#040000" stroke-width="3" stroke-miterlimit="10" points="914.3,432.8 914.3,464.9 763,464.9
		763,499.7 767.5,499.7 767.5,512.1 763,512.1 763,519.3 766.3,519.3 766.3,531.7 763,531.7 763,540.6 772.5,540.6 772.5,562.2
		959.6,562.2 959.6,549.6 1056.7,549.6 1056.7,562.2 1074.8,562.2 1074.8,467.5 1074.8,464.9 1074.8,432.8 	"/>
</g>
<g id="橙浅色">
	<polygon fill="#ECA98E" stroke="#040000" stroke-width="3" stroke-miterlimit="10" points="985.1,391.6 985.1,399.2 936.9,399.2
		936.9,391.6 915.5,391.6 902.1,391.6 876.4,391.6 841.8,391.6 841.8,395.5 825.9,395.5 825.9,391.6 772.8,391.6 772.8,401 763,401
		763,419.4 767.2,419.4 767.2,434.9 763,434.9 763,451 767.2,451 767.2,465.7 763,465.7 763,468 826.3,468 826.3,563 889.3,563
		889.3,526.5 915.5,526.5 915.5,463 937.1,463 937.1,454.5 959.3,454.5 959.3,463 963,463 963,454.5 983.9,454.5 983.9,463
		1074.8,463 1074.8,391.6 	"/>
</g>
<g id="亮绿色">

	<polygon id="room-3" points="1407.2,584.2 1407.2,474.9
		1338.6,474.9 1338.6,391.6 1075.7,391.6 1075.7,651.2 1197.1,651.2 1197.1,647.2 1318,647.2 1318,651.2 1340.8,651.2 1340.8,623.9
		1407.2,623.9 1407.2,608.9 1399.1,608.9 1399.1,584.2 	"/>
</g>
<g id="单独黄色">
	<polygon id="room-1" points="579.8,831.3 701.4,831.3 701.4,835.7
		731.5,835.7 731.5,831.1 755.8,831.1 755.8,835.7 776,835.7 776,831.1 799.8,831.1 799.8,835.7 819.1,835.7 819.1,765.5
		919.8,765.5 919.8,615.8 845.8,615.8 845.8,698.6 816.8,698.6 816.8,615.8 768.3,615.8 768.3,621.1 754.1,621.1 754.1,615.8
		749.7,615.8 749.7,628.8 694.9,628.8 694.9,615.8 655,615.8 655,633 616.6,633 616.6,615.8 584.4,615.8 584.4,621.1 570.6,621.1
		570.6,615.8 555.9,615.8 555.9,638.1 565.6,638.1 565.6,662.5 555.9,662.5 555.9,682.1 565.6,682.1 565.6,706.4 555.9,706.4
		555.9,740.8 561.4,740.8 561.4,813.3 555.9,813.3 555.9,835.7 579.8,835.7 	"/>
</g>
</svg>
