<?xml version="1.0" encoding="utf-8"?>
<!-- Generator: Adobe Illustrator 22.0.1, SVG Export Plug-In . SVG Version: 6.00 Build 0)  -->
<svg version="1.0" id="图层_1" xmlns="http://www.w3.org/2000/svg" xmlns:xlink="http://www.w3.org/1999/xlink" x="0px" y="0px"
	 viewBox="0 0 116.9 116.4" style="enable-background:new 0 0 116.9 116.4;" xml:space="preserve">
<g>
	<path style="fill:#a0acb8;" d="M94.9,61.4H55.4V22c0-2.7-2.2-4.9-4.9-4.9H6c-2.7,0-4.9,2.2-4.9,4.9v88.8c0,2.7,2.2,4.9,4.9,4.9
		h88.9c2.7,0,4.9-2.2,4.9-4.9V66.3C99.9,63.6,97.6,61.4,94.9,61.4L94.9,61.4z M45.5,26.9v34.5H10.9V26.9H45.5z M10.9,71.4h34.6v34.5
		H10.9V71.4z M90,105.9H55.4V71.2H90V105.9z M90,105.9"/>
	<path style="fill:#a0acb8;" d="M111.3,0.6H68.2c-2.6,0-4.8,2.1-4.8,4.8v43.1c0,2.6,2.1,4.8,4.8,4.8h43.1c2.6,0,4.8-2.1,4.8-4.8V5.3
		C116.1,2.7,113.9,0.6,111.3,0.6L111.3,0.6z M106.5,43.7H73V10.1h33.6V43.7z M106.5,43.7"/>
	<rect x="84.8" y="22" style="fill:#a0acb8;" width="9.9" height="9.9"/>
</g>
</svg>
