<?xml version="1.0" encoding="utf-8"?>
<!-- Generator: Adobe Illustrator 22.0.1, SVG Export Plug-In . SVG Version: 6.00 Build 0)  -->
<svg version="1.0" id="图层_1" xmlns="http://www.w3.org/2000/svg" xmlns:xlink="http://www.w3.org/1999/xlink" x="0px" y="0px"
	 viewBox="0 0 24 28" style="enable-background:new 0 0 24 28;" xml:space="preserve">
<g>
	<g>
		<polygon style="fill:#101010;" points="16,28 16,4.1 0,16 		"/>
		<polygon style="fill:#101010;" points="18,8.6 18,23.5 24,28 24,4.1 		"/>
	</g>
	<g>
		<g>
			<path d="M6.2,6.2V5.3l2.4-2.2c0.4-0.4,0.7-0.8,0.7-1.2c0-0.6-0.4-1-1-1c-0.5,0-1,0.4-1,1h-1C6.2,0.8,7.2,0,8.3,0
				c1.2,0,2,0.8,2,1.9c0,0.7-0.5,1.3-1.1,1.8L7.6,5.3h2.9v0.9H6.2z"/>
		</g>
		<polygon points="3.5,5.6 4.2,4.9 2.8,3.5 4.2,2.1 3.5,1.4 2.1,2.8 0.7,1.4 0,2.1 1.4,3.5 0,4.9 0.7,5.6 2.1,4.2 		"/>
	</g>
</g>
</svg>
