<?xml version="1.0" encoding="utf-8"?>
<!-- Generator: Adobe Illustrator 21.0.0, SVG Export Plug-In . SVG Version: 6.00 Build 0)  -->
<svg version="1.1" id="图层_1" xmlns="http://www.w3.org/2000/svg" xmlns:xlink="http://www.w3.org/1999/xlink" x="0px" y="0px"
	 viewBox="0 0 100 100" style="enable-background:new 0 0 100 100;" xml:space="preserve">
<style type="text/css">
	.st0{fill:#FAFAFA;}
</style>
<path class="st0" d="M50.5,0c-27.7,0-50,22.4-50,50c0,27.7,22.3,50,50,50c27.6,0,50-22.3,50-50C100.5,22.4,78.2,0,50.5,0z
	 M50.5,94.1C26.4,94.1,6.4,74.5,6.4,50c0-24.1,19.9-44.1,44.1-44.1C75,5.9,94.6,25.9,94.6,50C94.6,74.5,75,94.1,50.5,94.1z"/>
<path class="st0" d="M50.5,86.7c20.2,0,36.7-16.5,36.7-36.7c0.1-5.9-1.3-11.8-4.2-16.8L50.2,86.7H50.5z"/>
<polygon class="st0" points="56.5,59.2 51.2,50.4 51.2,50.4 40,50.4 50.9,68.2 "/>
<path class="st0" d="M13.8,50c0,20.3,16.1,36.5,36.1,36.7L18,33.2C15.1,38.5,13.8,44.1,13.8,50z"/>
<path class="st0" d="M50.6,13.3c-8.5,0-16.3,3-22.6,8c-3.8,3-7,6.7-9.4,11h10.5l5.6,9.1H46l0,0h0l-5.2-9.1h12.6L62.4,48l9.4-16.1
	h10.9C76.1,21,64.1,13.3,50.6,13.3z"/>
</svg>
