<?xml version="1.0" encoding="utf-8"?>
<!-- Generator: Adobe Illustrator 22.0.1, SVG Export Plug-In . SVG Version: 6.00 Build 0)  -->
<svg version="1.0" id="图层_1" xmlns="http://www.w3.org/2000/svg" xmlns:xlink="http://www.w3.org/1999/xlink" x="0px" y="0px"
	 viewBox="0 0 123.6 123.4" style="enable-background:new 0 0 123.6 123.4;" xml:space="preserve">
<g>
	<g>
		<defs>
			<rect id="SVGID_1_" x="1" y="0.3" width="122" height="122.2"/>
		</defs>
		<clipPath id="SVGID_2_">
			<use xlink:href="#SVGID_1_"  style="overflow:visible;"/>
		</clipPath>
		<path style="clip-path:url(#SVGID_2_);fill:#a0acb8;" d="M58.9,71.8h28.2c2.4,0,4.4-2,4.4-4.4c0-2.4-2-4.4-4.4-4.4H63.3V38.3
			c0-2.4-2-4.4-4.4-4.4c-2.4,0-4.4,2-4.4,4.4v29.1C54.5,69.8,56.5,71.8,58.9,71.8L58.9,71.8z M58.9,71.8"/>
		<path style="clip-path:url(#SVGID_2_);fill:#a0acb8;" d="M99.5,13.3c-12.8-10-28.8-14.4-45-12.5c-16.2,2-30.6,10.1-40.6,23
			c-1.5,1.9-1.2,4.7,0.8,6.2c1.9,1.5,4.7,1.1,6.2-0.8c8.6-11,20.9-18,34.8-19.7c13.9-1.7,27.5,2.1,38.5,10.7
			c22.7,17.7,26.7,50.6,9,73.3c-17.7,22.7-50.6,26.7-73.3,9C14.4,90.4,7,70.9,10.7,51.6c0.4-2.4-1.1-4.7-3.5-5.1
			C4.8,46,2.5,47.6,2.1,50c-4.3,22.5,4.3,45.3,22.4,59.4c10.8,8.5,23.9,12.9,37.4,12.9c2.5,0,5-0.1,7.6-0.5
			c16.2-2,30.6-10.1,40.6-23C130.7,72.4,126,34,99.5,13.3L99.5,13.3z M99.5,13.3"/>
	</g>
</g>
</svg>
