<?xml version="1.0" encoding="utf-8"?>
<!-- Generator: Adobe Illustrator 22.0.1, SVG Export Plug-In . SVG Version: 6.00 Build 0)  -->
<svg version="1.0" id="图层_1" xmlns="http://www.w3.org/2000/svg" xmlns:xlink="http://www.w3.org/1999/xlink" x="0px" y="0px"
	 viewBox="0 0 24 28" style="enable-background:new 0 0 24 28;" xml:space="preserve">
<g>
	<g>
		<polygon style="fill:#101010;" points="8,4.1 8,28 24,16 		"/>
		<polygon style="fill:#101010;" points="0,28 6,23.5 6,8.6 0,4.1 		"/>
	</g>
	<g>
		<g>
			<path d="M19.7,6.2V5.3l2.4-2.2c0.4-0.4,0.7-0.8,0.7-1.2c0-0.6-0.4-1-1-1c-0.5,0-1,0.4-1,1h-1c0-1.2,0.9-1.9,2.1-1.9
				c1.2,0,2,0.8,2,1.9c0,0.7-0.5,1.3-1.1,1.8l-1.6,1.6H24v0.9H19.7z"/>
		</g>
		<polygon points="17,5.6 17.7,4.9 16.3,3.5 17.7,2.1 17,1.4 15.6,2.8 14.2,1.4 13.5,2.1 14.9,3.5 13.5,4.9 14.2,5.6 15.6,4.2 		"/>
	</g>
</g>
</svg>
