<?xml version="1.0" encoding="utf-8"?>
<!-- Generator: Adobe Illustrator 22.0.1, SVG Export Plug-In . SVG Version: 6.00 Build 0)  -->
<svg version="1.0" id="图层_1" xmlns="http://www.w3.org/2000/svg" xmlns:xlink="http://www.w3.org/1999/xlink" x="0px" y="0px"
	 viewBox="0 0 125.1 120.1" style="enable-background:new 0 0 125.1 120.1;" xml:space="preserve">
<g>
	<g>
		<defs>
			<rect id="SVGID_1_" x="0.8" y="0.8" width="123" height="118.3"/>
		</defs>
		<clipPath id="SVGID_2_">
			<use xlink:href="#SVGID_1_"  style="overflow:visible;"/>
		</clipPath>
		<path style="clip-path:url(#SVGID_2_);fill:#a0acb8;" d="M61.8,42.1c9.3,0,16.9,7.6,16.9,16.9c0,9.3-7.6,16.9-16.9,16.9
			c-9.3,0-16.9-7.6-16.9-16.9C44.9,49.7,52.5,42.1,61.8,42.1 M61.8,34.6c-13.5,0-24.4,10.9-24.4,24.4c0,13.5,10.9,24.4,24.4,24.4
			c13.5,0,24.4-10.9,24.4-24.4C86.3,45.5,75.3,34.6,61.8,34.6 M122.2,73.9c1.1-4.6,1.6-9.3,1.6-14.1c0-4.8-0.5-9.5-1.6-14.1
			c-0.5-2-2.5-3.3-4.5-2.8c-2,0.5-3.3,2.5-2.8,4.5c0.9,4,1.4,8.2,1.4,12.4c0,4.2-0.5,8.3-1.4,12.4c-0.5,2,0.8,4,2.8,4.5
			C119.7,77.2,121.7,76,122.2,73.9L122.2,73.9z M117.8,76.8c0.2,0,0.4,0,0.6,0c2.1,0.1,3.8-1.5,3.9-3.6c0.1-2.1-1.5-3.8-3.6-3.9
			c-0.3,0-0.6,0-0.9,0c-2.1,0-3.8,1.7-3.8,3.8C114,75.1,115.7,76.8,117.8,76.8L117.8,76.8z M105.5,99.4c-1.5-2.4-2.4-5.1-2.4-8
			c0-8.1,6.6-14.6,14.6-14.6c2.1,0,3.8-1.7,3.8-3.8c0-2.1-1.7-3.8-3.8-3.8c-12.2,0-22.2,9.9-22.2,22.2c0,4.3,1.3,8.5,3.6,12.1
			c1.1,1.7,3.5,2.2,5.2,1.1C106.1,103.5,106.6,101.2,105.5,99.4L105.5,99.4z M80.1,118.8c9.4-2.8,17.9-7.8,24.9-14.6
			c1.5-1.4,1.5-3.8,0.1-5.3c-1.4-1.5-3.8-1.5-5.3-0.1c-6.2,5.9-13.6,10.3-21.8,12.8c-2,0.6-3.1,2.7-2.5,4.7
			C76,118.2,78.1,119.4,80.1,118.8L80.1,118.8z M49.1,116.8c2.4-5.1,7.5-8.4,13.2-8.4c5.7,0,10.9,3.3,13.3,8.4
			c0.9,1.9,3.1,2.7,5,1.8c1.9-0.9,2.7-3.1,1.8-5c-3.6-7.7-11.4-12.7-20.1-12.7c-8.7,0-16.4,5-20,12.7c-0.9,1.9-0.1,4.1,1.8,5
			C46,119.5,48.2,118.6,49.1,116.8L49.1,116.8z M19.9,104.4c7,6.7,15.4,11.6,24.7,14.4c2,0.6,4.1-0.5,4.7-2.5c0.6-2-0.5-4.1-2.5-4.7
			c-8.1-2.4-15.6-6.8-21.7-12.6c-1.5-1.4-3.9-1.4-5.3,0.1C18.3,100.5,18.4,102.9,19.9,104.4L19.9,104.4z M7.1,76.8
			c8.1,0,14.6,6.6,14.6,14.6c0,2.9-0.9,5.7-2.4,8.1c-1.1,1.7-0.7,4.1,1,5.2c1.7,1.1,4.1,0.7,5.2-1c2.4-3.6,3.7-7.8,3.7-12.3
			c0-12.2-9.9-22.2-22.2-22.2c-2.1,0-3.8,1.7-3.8,3.8C3.4,75.1,5.1,76.8,7.1,76.8L7.1,76.8z M6.3,76.8c0.3,0,0.5,0,0.8,0
			c2.1,0,3.8-1.7,3.8-3.8c0-2.1-1.7-3.8-3.8-3.8c-0.4,0-0.8,0-1.2,0c-2.1,0.1-3.7,1.9-3.5,4C2.5,75.4,4.2,77,6.3,76.8L6.3,76.8z
			 M2.4,45.8c-1.1,4.6-1.6,9.3-1.6,14.1c0,4.8,0.5,9.5,1.6,14.1c0.5,2,2.5,3.3,4.5,2.8c2-0.5,3.3-2.5,2.8-4.5
			c-0.9-4-1.4-8.2-1.4-12.4c0-4.2,0.5-8.3,1.4-12.4c0.5-2-0.8-4-2.8-4.5C4.9,42.5,2.9,43.7,2.4,45.8L2.4,45.8z M7.1,42.9
			c-0.3,0-0.6,0-0.8,0c-2.1-0.1-3.8,1.5-4,3.5c-0.1,2.1,1.5,3.8,3.5,4c0.4,0,0.8,0,1.2,0c2.1,0,3.8-1.7,3.8-3.8
			C10.9,44.6,9.2,42.9,7.1,42.9L7.1,42.9z M19.3,20.2c1.6,2.4,2.4,5.2,2.4,8.1c0,8.1-6.6,14.6-14.6,14.6c-2.1,0-3.8,1.7-3.8,3.8
			c0,2.1,1.7,3.8,3.8,3.8c12.2,0,22.2-9.9,22.2-22.2c0-4.4-1.3-8.7-3.7-12.3c-1.1-1.7-3.5-2.2-5.2-1C18.6,16.1,18.2,18.4,19.3,20.2
			L19.3,20.2z M44.6,0.9c-9.3,2.8-17.7,7.7-24.7,14.4c-1.5,1.4-1.6,3.8-0.1,5.3c1.4,1.5,3.8,1.6,5.3,0.1
			c6.1-5.9,13.6-10.2,21.7-12.6c2-0.6,3.1-2.7,2.5-4.7C48.7,1.5,46.6,0.3,44.6,0.9L44.6,0.9z M75.6,2.9c-2.4,5.1-7.5,8.4-13.2,8.4
			c-5.7,0-10.9-3.3-13.3-8.4c-0.9-1.9-3.1-2.7-5-1.8c-1.9,0.9-2.7,3.1-1.8,5c3.6,7.7,11.4,12.7,20.1,12.7c8.7,0,16.4-5,20-12.7
			c0.9-1.9,0.1-4.1-1.8-5C78.7,0.3,76.5,1.1,75.6,2.9L75.6,2.9z M104.9,15.5c-7-6.7-15.5-11.8-24.9-14.6c-2-0.6-4.1,0.5-4.7,2.5
			c-0.6,2,0.5,4.1,2.5,4.7c8.2,2.5,15.7,6.9,21.8,12.8c1.5,1.4,3.9,1.4,5.3-0.1C106.5,19.3,106.4,17,104.9,15.5L104.9,15.5z
			 M117.8,42.9c-8.1,0-14.6-6.6-14.6-14.6c0-2.9,0.8-5.6,2.4-8c1.1-1.7,0.6-4.1-1.1-5.2c-1.7-1.1-4.1-0.6-5.2,1.1
			c-2.3,3.6-3.6,7.7-3.6,12.1c0,12.2,9.9,22.2,22.2,22.2c2.1,0,3.8-1.7,3.8-3.8C121.5,44.6,119.8,42.9,117.8,42.9L117.8,42.9z
			 M118.4,42.9c-0.2,0-0.4,0-0.6,0c-2.1,0-3.8,1.7-3.8,3.8c0,2.1,1.7,3.8,3.8,3.8c0.3,0,0.6,0,0.9,0c2.1-0.1,3.7-1.8,3.6-3.9
			C122.2,44.4,120.5,42.8,118.4,42.9L118.4,42.9z M118.4,42.9"/>
	</g>
</g>
</svg>
