<?xml version="1.0" encoding="utf-8"?>
<!-- Generator: Adobe Illustrator 18.0.0, SVG Export Plug-In . SVG Version: 6.00 Build 0)  -->
<!DOCTYPE svg PUBLIC "-//W3C//DTD SVG 1.1//EN" "http://www.w3.org/Graphics/SVG/1.1/DTD/svg11.dtd">
<svg version="1.1" xmlns="http://www.w3.org/2000/svg" xmlns:xlink="http://www.w3.org/1999/xlink" x="0px" y="0px"
	 width="6394.7px" height="3815.2px" viewBox="0 0 6394.7 3815.2" enable-background="new 0 0 6394.7 3815.2" xml:space="preserve">
<g id="轮廓">
	<path fill="#EDEDED" stroke="#B7B7B7" stroke-width="4" stroke-miterlimit="10" d="M5317.8,2606.9
		c29.1-164.7-411.4-299-553.9-375.2c-197.5-105.5-809.5-342-809.5-342S3410,1571,3379,1571s-231.1,11.1-340.2-42.1
		c-109.1-53.1-297.2-95.2-635.9-307.6s-424.8-391.9-529-391.8c-93.4,4-396.2-77.5-469.2-53.1c-73,24.3,17.7,106.2-119.5,343.1
		c-209.2,165.4-250.1,230.2-250.1,230.2s-104,245.9,24.3,338.7c128.4,92.8,132.8,219,115.1,320.8c-17.7,101.8-4.4,513.5,53.1,520.1
		c57.5,6.6,18.8,97.4,201.4,213.6s587.6,272.2,843.3,272.2c255.6,0,533.6,282.2,766.4,268.9c232.9-13.3,548.3,43.2,697.6,129.5
		c149.4,86.3,348.6-136.1,471.4-222.4s885.2-266.8,863.2-451.5C5071.9,2677.4,5305.7,2675.9,5317.8,2606.9z"/>
	<path fill="#EDEDED" stroke="#B7B7B7" stroke-width="4" stroke-miterlimit="10" d="M3954.5,1889.8c0,0-526.5-332.2-575.5-318.7
		c-29.9,8.2-231.1,11.1-340.2-42.1"/>
	<path fill="#EDEDED" stroke="#B7B7B7" stroke-width="4" stroke-miterlimit="10" d="M4294.2,2519.3c0,0-733.6-242-1480.3-426.9
		c-282.2-87.4-802.5-267-1089.6-360.8c-112.9-36.9-480.3-18.3-441.3-130.4v-156c39-112.2,356.1-305.9,468.3-266.9
		c0,0,342.1,101.6,447.6,155.5c222.4,113.8,575.2,403.3,893.5,447.3c460.3,63.6,1343.7,330.1,1343.7,330.1
		c112.2,39,172.1,162.7,133.1,274.9l0,0C4530.1,2498.4,4406.4,2558.3,4294.2,2519.3z"/>
</g>
<g id="深黄色">
	<path fill="#C5A524" stroke="#FFFFFF" stroke-width="2" stroke-miterlimit="10" d="M2903.1,2988.9c0,0-353.8-79.5-448.2-114
		c-81.9-29.9-279.4-130.3-279.4-130.3l122.5-287.8l705.3,257.7L2903.1,2988.9z"/>
</g>
<g id="暗绿色1">
	<rect id="sz-1" name="" x="1661.4" y="2036.4" transform="matrix(0.9245 0.3812 -0.3812 0.9245 1037.3151 -633.0618)"  width="910.6" height="531.2"/>
	<g>

			<rect x="2370.9" y="2025.1" transform="matrix(0.9251 0.3798 -0.3798 0.9251 975.9684 -774.7336)" fill="#839353" stroke="#FFFFFF" stroke-width="2" stroke-miterlimit="10" width="161.6" height="122.6"/>

			<rect x="2270.2" y="2037.6" transform="matrix(0.9276 0.3736 -0.3736 0.9276 939.8868 -716.916)" fill="#839353" stroke="#FFFFFF" stroke-width="2" stroke-miterlimit="10" width="98.7" height="57.6"/>

			<rect x="2511.4" y="2137.2" transform="matrix(0.9276 0.3736 -0.3736 0.9276 994.5737 -799.8271)" fill="#839353" stroke="#FFFFFF" stroke-width="2" stroke-miterlimit="10" width="98.7" height="57.6"/>
	</g>
	<g>

			<rect x="1952.4" y="1852.6" transform="matrix(0.9251 0.3798 -0.3798 0.9251 879.1359 -628.717)" fill="#839353" stroke="#FFFFFF" stroke-width="2" stroke-miterlimit="10" width="161.6" height="122.6"/>

			<rect x="1851.6" y="1865.2" transform="matrix(0.9276 0.3736 -0.3736 0.9276 845.1705 -573.0515)" fill="#839353" stroke="#FFFFFF" stroke-width="2" stroke-miterlimit="10" width="98.7" height="57.6"/>

			<rect x="2092.9" y="1964.8" transform="matrix(0.9276 0.3736 -0.3736 0.9276 899.8574 -655.9625)" fill="#839353" stroke="#FFFFFF" stroke-width="2" stroke-miterlimit="10" width="98.7" height="57.6"/>
	</g>
	<g>

			<rect x="1705.5" y="2458.6" transform="matrix(0.9227 0.3856 -0.3856 0.9227 1109.8531 -493.9309)" fill="#839353" stroke="#FFFFFF" stroke-width="2" stroke-miterlimit="10" width="161.6" height="122.6"/>

			<rect x="1629.4" y="2411.8" transform="matrix(0.9201 0.3918 -0.3918 0.9201 1090.3037 -462.5715)" fill="#839353" stroke="#FFFFFF" stroke-width="2" stroke-miterlimit="10" width="98.7" height="57.6"/>

			<rect x="1870.4" y="2512" transform="matrix(0.9201 0.3918 -0.3918 0.9201 1148.7988 -548.9951)" fill="#839353" stroke="#FFFFFF" stroke-width="2" stroke-miterlimit="10" width="98.7" height="57.6"/>
	</g>
	<g>

			<rect x="2111.4" y="2626.1" transform="matrix(0.9227 0.3856 -0.3856 0.9227 1205.8412 -637.4965)" fill="#839353" stroke="#FFFFFF" stroke-width="2" stroke-miterlimit="10" width="161.6" height="122.6"/>

			<rect x="2035.3" y="2579.4" transform="matrix(0.9201 0.3918 -0.3918 0.9201 1188.373 -608.1968)" fill="#839353" stroke="#FFFFFF" stroke-width="2" stroke-miterlimit="10" width="98.7" height="57.6"/>

			<rect x="2276.3" y="2679.5" transform="matrix(0.9201 0.3918 -0.3918 0.9201 1246.8682 -694.6204)" fill="#839353" stroke="#FFFFFF" stroke-width="2" stroke-miterlimit="10" width="98.7" height="57.6"/>
	</g>
</g>
<g id="暗绿色2">
	<g>

			<rect x="2685.4" y="2360.2" transform="matrix(0.9852 0.1717 -0.1717 0.9852 495.9374 -498.7897)" fill="#839353" stroke="#FFFFFF" stroke-width="2" stroke-miterlimit="10" width="892.7" height="515.4"/>
		<g>

				<rect x="2898.8" y="2206" transform="matrix(0.9844 0.1759 -0.1759 0.9844 445.1377 -488.6349)" fill="#839353" stroke="#FFFFFF" stroke-width="2" stroke-miterlimit="10" width="161.6" height="122.6"/>

				<rect x="2796.9" y="2246.9" transform="matrix(0.9856 0.1693 -0.1693 0.9856 426.3068 -448.9748)" fill="#839353" stroke="#FFFFFF" stroke-width="2" stroke-miterlimit="10" width="98.7" height="57.6"/>

				<rect x="3053.7" y="2293.3" transform="matrix(0.9856 0.1693 -0.1693 0.9856 437.8759 -491.7841)" fill="#839353" stroke="#FFFFFF" stroke-width="2" stroke-miterlimit="10" width="98.7" height="57.6"/>
		</g>
		<g>

				<rect x="3294.7" y="2274.7" transform="matrix(0.9847 0.1743 -0.1743 0.9847 458.8946 -552.6443)" fill="#839353" stroke="#FFFFFF" stroke-width="2" stroke-miterlimit="10" width="161.6" height="122.6"/>

				<rect x="3192.7" y="2315.8" transform="matrix(0.9858 0.1678 -0.1678 0.9858 439.2443 -510.6392)" fill="#839353" stroke="#FFFFFF" stroke-width="2" stroke-miterlimit="10" width="98.7" height="57.6"/>

				<rect x="3449.6" y="2361.8" transform="matrix(0.9858 0.1678 -0.1678 0.9858 450.609 -553.0848)" fill="#839353" stroke="#FFFFFF" stroke-width="2" stroke-miterlimit="10" width="98.7" height="57.6"/>
		</g>
		<g>

				<rect x="3241.5" y="2913.6" transform="matrix(0.9853 0.171 -0.171 0.9853 557.6884 -524.3271)" fill="#839353" stroke="#FFFFFF" stroke-width="2" stroke-miterlimit="10" width="161.6" height="122.6"/>

				<rect x="3150.4" y="2891.6" transform="matrix(0.9843 0.1767 -0.1767 0.9843 566.2933 -519.3721)" fill="#839353" stroke="#FFFFFF" stroke-width="2" stroke-miterlimit="10" width="98.7" height="57.6"/>

				<rect x="3407.6" y="2936.9" transform="matrix(0.9841 0.1776 -0.1776 0.9841 581.5966 -566.761)" fill="#839353" stroke="#FFFFFF" stroke-width="2" stroke-miterlimit="10" width="98.7" height="57.6"/>
		</g>
		<g>

				<rect x="2783.3" y="2835" transform="matrix(0.9853 0.171 -0.171 0.9853 537.5082 -447.1341)" fill="#839353" stroke="#FFFFFF" stroke-width="2" stroke-miterlimit="10" width="161.6" height="122.6"/>

				<rect x="2692.2" y="2813.1" transform="matrix(0.9843 0.1767 -0.1767 0.9843 545.2109 -439.6646)" fill="#839353" stroke="#FFFFFF" stroke-width="2" stroke-miterlimit="10" width="98.7" height="57.6"/>

				<rect x="2949.5" y="2858.4" transform="matrix(0.9841 0.1776 -0.1776 0.9841 560.3683 -486.6509)" fill="#839353" stroke="#FFFFFF" stroke-width="2" stroke-miterlimit="10" width="98.7" height="57.6"/>
		</g>
	</g>
</g>
<g id="墨蓝色右">

		<rect x="3626.5" y="2455.4" transform="matrix(0.9821 0.1883 -0.1883 0.9821 599.1694 -674.9081)" fill="#4C6569" stroke="#FFFFFF" stroke-width="2" stroke-miterlimit="10" width="448.7" height="719.7"/>

		<rect x="4130.8" y="2618.7" transform="matrix(0.9881 0.1541 -0.1541 0.9881 461.3275 -614.8019)" fill="#4C6569" stroke="#FFFFFF" stroke-width="2" stroke-miterlimit="10" width="129.6" height="98.1"/>

		<rect x="4043.4" y="3049.2" transform="matrix(0.9831 0.1832 -0.1832 0.9831 637.1127 -700.1703)" fill="#4C6569" stroke="#FFFFFF" stroke-width="2" stroke-miterlimit="10" width="129.6" height="98.1"/>
</g>
<g id="墨蓝色左">

		<rect x="1407.6" y="1753.5" transform="matrix(0.9128 0.4085 -0.4085 0.9128 930.8427 -454.9987)" fill="#4C6569" stroke="#FFFFFF" stroke-width="2" stroke-miterlimit="10" width="246.3" height="397"/>
</g>
<g id="上面墨蓝色">

		<rect x="1481.1" y="1297.1" transform="matrix(0.9317 0.3634 -0.3634 0.9317 644.9121 -519.0154)" fill="#4C6569" stroke="#FFFFFF" stroke-width="2" stroke-miterlimit="10" width="441.9" height="315.3"/>

		<rect x="1947.3" y="1478.7" transform="matrix(0.9317 0.3634 -0.3634 0.9317 691.2803 -628.2842)" fill="#4C6569" stroke="#FFFFFF" stroke-width="2" stroke-miterlimit="10" width="136.9" height="89.3"/>

		<rect x="1908" y="1585.5" transform="matrix(0.9317 0.3634 -0.3634 0.9317 727.3978 -606.7108)" fill="#4C6569" stroke="#FFFFFF" stroke-width="2" stroke-miterlimit="10" width="136.9" height="89.3"/>
</g>
<g id="土橙色1">

		<rect x="2076.1" y="1523.8" transform="matrix(0.9276 0.3736 -0.3736 0.9276 799.1004 -734.4836)" fill="#C3935E" stroke="#FFFFFF" stroke-width="2" stroke-miterlimit="10" width="436.2" height="340.5"/>
</g>
<g id="土橙色2">

		<rect x="3773.3" y="2026.1" transform="matrix(0.9844 0.1761 -0.1761 0.9844 445.7859 -668.8818)" fill="#C3935E" stroke="#FFFFFF" stroke-width="2" stroke-miterlimit="10" width="436.2" height="302.1"/>
</g>
<g id="亮蓝色1">

		<rect x="2536.1" y="1771.3" transform="matrix(0.9312 0.3644 -0.3644 0.9312 882.3621 -890.6218)" fill="#218FA2" stroke="#FFFFFF" stroke-width="2" stroke-miterlimit="10" width="530.1" height="243"/>
</g>
<g id="亮蓝色2">

		<rect x="3146.7" y="1958.2" transform="matrix(0.9892 0.1466 -0.1466 0.9892 341.7772 -477.7422)" fill="#218FA2" stroke="#FFFFFF" stroke-width="2" stroke-miterlimit="10" width="530.1" height="243"/>
</g>
</svg>
