<?xml version="1.0" encoding="utf-8"?>
<!-- Generator: Adobe Illustrator 18.0.0, SVG Export Plug-In . SVG Version: 6.00 Build 0)  -->
<!DOCTYPE svg PUBLIC "-//W3C//DTD SVG 1.1//EN" "http://www.w3.org/Graphics/SVG/1.1/DTD/svg11.dtd">
<svg version="1.1" xmlns="http://www.w3.org/2000/svg" xmlns:xlink="http://www.w3.org/1999/xlink" x="0px" y="0px"
	 viewBox="0 0 2834.6 1700.8" enable-background="new 0 0 2834.6 1700.8" xml:space="preserve">
<g id="background">
</g>
<g id="house_x5F_box">
	<polyline fill="none" stroke="#000000" stroke-width="10" stroke-miterlimit="10" points="1700.1,498.6 1433,498.8 1280.1,498.8 
		953.6,498.8 	"/>
	<line fill="none" stroke="#000000" stroke-width="10" stroke-miterlimit="10" x1="2069.5" y1="498.1" x2="1872.6" y2="498.8"/>
	<polyline fill="none" stroke="#000000" stroke-width="10" stroke-miterlimit="10" points="781.1,498.8 621.2,498.8 621.2,1254.9 
		2310.9,1254.9 2310.9,498.8 2242,498.8 	"/>
</g>
<g id="type_x5F_M">
	<rect x="1690.1" y="426.9" width="10" height="67.9"/>
	<rect x="1872.6" y="426.1" width="10" height="68.7"/>
	<path fill="none" stroke="#000000" stroke-width="9" stroke-miterlimit="10" d="M1692.7,430.6c30.9-20.1,63.9-8.7,85.2,14
		c11,10.8,6.3,29.4,6.5,58.9"/>
	<path fill="none" stroke="#000000" stroke-width="9" stroke-miterlimit="10" d="M1880.3,429.6c-30.9-20.1-64.2-10.5-85.4,12.1
		c-12.9,10.3-9.2,32-10.6,61.8"/>
	<rect x="2059.5" y="426.3" width="10" height="67.9"/>
	<rect x="2242" y="425.5" width="10" height="68.7"/>
	<path fill="none" stroke="#000000" stroke-width="9" stroke-miterlimit="10" d="M2062.1,430c30.9-20.1,63.9-8.7,85.2,14
		c11,10.8,6.2,30,6.3,59.5"/>
	<path fill="none" stroke="#000000" stroke-width="9" stroke-miterlimit="10" d="M2249.7,429c-30.9-20.1-64.2-10.5-85.4,12.1
		c-12.9,10.3-9.4,32.6-10.7,62.4"/>
	<rect x="771.1" y="428.9" width="10" height="74.9"/>
	<rect x="953.6" y="428.1" width="10" height="75.7"/>
	<path fill="none" stroke="#000000" stroke-width="9" stroke-miterlimit="10" d="M773.7,432.6c30.9-20.1,63.9-8.7,85.2,14
		c11,10.8,7.3,28.4,7.5,57.9"/>
	<path fill="none" stroke="#000000" stroke-width="9" stroke-miterlimit="10" d="M961.3,431.6c-30.9-20.1-64.2-10.5-85.4,12.1
		c-12.9,10.3-8.2,31-9.6,60.8"/>
</g>
<g id="interval_bar_3_">
	<rect x="554" y="432.7" width="72" height="137.8"/>
	<rect x="553" y="1199.9" width="72" height="99.1"/>
</g>
<g id="interval_bar_1_">
	<rect x="1048" y="499.6" width="72" height="72"/>
	<rect x="1048" y="1182" width="72" height="132"/>
	<rect x="1079.8" y="570" width="10" height="612.2"/>
</g>
<g id="interval_bar">
	<rect x="1527" y="499.6" width="72" height="72"/>
	<rect x="1527" y="1183.1" width="72" height="126"/>
	<rect x="2242" y="493.4" width="74" height="72.7"/>
	<rect x="2242.7" y="1187.7" width="73.3" height="127.2"/>
</g>
<g id="interval_bar_2_">
	<rect x="2003.5" y="501" width="9.9" height="754.5"/>
</g>
<g id="straight_line">
	<path fill="none" stroke="#000000" stroke-width="2" stroke-miterlimit="10" d="M2291.8,738.2h-715.2v-41.5c0-1.6-1.3-2.8-2.8-2.8
		h-20.3c-1.6,0-2.8,1.3-2.8,2.8v316.9c-0.5-0.4-1.1-0.7-1.8-0.7h-598V572.8c0-1.6-1.3-2.8-2.8-2.8h-20.3c-1.6,0-2.8,1.3-2.8,2.8
		V1013H699V566.5c0-1.6-1.3-2.8-2.8-2.8h-20.3c-1.6,0-2.8,1.3-2.8,2.8V1013h-40.8c-1.6,0-2.8,1.3-2.8,2.8v20.3
		c0,1.6,1.3,2.8,2.8,2.8H673v107.2c0,1.6,1.3,2.8,2.8,2.8h20.3c1.6,0,2.8-1.3,2.8-2.8V1039h225.8v118.4c0,1.6,1.3,2.8,2.8,2.8H948
		c1.6,0,2.8-1.3,2.8-2.8V1039h598c0.7,0,1.3-0.3,1.8-0.7v59.8c0,1.6,1.3,2.8,2.8,2.8h20.3c1.6,0,2.8-1.3,2.8-2.8V765.8h715.2
		c1.6,0,2.8-1.3,2.8-2.8v-21.9C2294.7,739.5,2293.4,738.2,2291.8,738.2z"/>
</g>
<g id="straight_line_1_">
	<path fill="none" stroke="#000000" stroke-width="2" stroke-miterlimit="10" d="M739.8,636.3h-54.3c-1.6,0-2.8-1.3-2.8-2.8v-15.7
		c0-1.6,1.3-2.8,2.8-2.8h54.3c1.6,0,2.8,1.3,2.8,2.8v15.7C742.7,635.1,741.4,636.3,739.8,636.3z"/>
	<path fill="none" stroke="#000000" stroke-width="2" stroke-miterlimit="10" d="M739.8,677h-54.3c-1.6,0-2.8-1.3-2.8-2.8v-15.7
		c0-1.6,1.3-2.8,2.8-2.8h54.3c1.6,0,2.8,1.3,2.8,2.8v15.7C742.7,675.7,741.4,677,739.8,677z"/>
	<path fill="none" stroke="#000000" stroke-width="2" stroke-miterlimit="10" d="M739.8,719.3h-54.3c-1.6,0-2.8-1.3-2.8-2.8v-15.7
		c0-1.6,1.3-2.8,2.8-2.8h54.3c1.6,0,2.8,1.3,2.8,2.8v15.7C742.7,718.1,741.4,719.3,739.8,719.3z"/>
	<path fill="none" stroke="#000000" stroke-width="2" stroke-miterlimit="10" d="M739.8,760h-54.3c-1.6,0-2.8-1.3-2.8-2.8v-15.7
		c0-1.6,1.3-2.8,2.8-2.8h54.3c1.6,0,2.8,1.3,2.8,2.8v15.7C742.7,758.7,741.4,760,739.8,760z"/>
</g>
<g id="dotted_line">
	<g>
		<rect x="2273" y="1014.9" width="7.3" height="9.3"/>
		<rect x="2273" y="937.5" width="7.3" height="10.3"/>
		<rect x="2273" y="953.5" width="7.3" height="9.3"/>
		<rect x="2273" y="984.8" width="7.3" height="9.3"/>
		<rect x="2273" y="999.8" width="7.3" height="9.4"/>
		<rect x="2273" y="968.5" width="7.3" height="10.5"/>
		<rect x="2273" y="892.4" width="7.3" height="9.3"/>
		<rect x="2273" y="582.6" width="7.3" height="9.3"/>
		<rect x="2273" y="907.4" width="7.3" height="9.4"/>
		<rect x="2273" y="922.5" width="7.3" height="9.3"/>
		<rect x="2273" y="875.6" width="7.3" height="11"/>
		<rect x="2273" y="675.5" width="7.3" height="9.3"/>
		<rect x="2273" y="1029.9" width="7.3" height="10.3"/>
		<rect x="2273" y="860.6" width="7.3" height="9.3"/>
		<rect x="2273" y="1045.9" width="7.3" height="9.3"/>
		<rect x="2273" y="690.5" width="7.3" height="9.4"/>
		<rect x="2273" y="720.6" width="7.3" height="10.3"/>
		<rect x="2273" y="767.9" width="7.3" height="9.3"/>
		<rect x="2273" y="751.6" width="7.3" height="10.5"/>
		<rect x="2273" y="736.6" width="7.3" height="9.3"/>
		<rect x="2273" y="705.6" width="7.3" height="9.3"/>
		<rect x="2273" y="1092.8" width="7.3" height="9.3"/>
		<rect x="2273" y="1168.9" width="7.3" height="8.1"/>
		<rect x="2273" y="1107.8" width="7.3" height="9.4"/>
		<rect x="2273" y="1137.9" width="7.3" height="10.3"/>
		<rect x="2273" y="1153.9" width="7.3" height="9.3"/>
		<rect x="2273" y="1122.9" width="7.3" height="9.3"/>
		<rect x="2273" y="1076.6" width="7.3" height="10.5"/>
		<rect x="2273" y="1182.8" width="7.3" height="6.7"/>
		<rect x="2273" y="563.7" width="7.3" height="13.2"/>
		<rect x="2273" y="1060.9" width="7.3" height="9.9"/>
		<rect x="2273" y="829" width="7.3" height="9.3"/>
		<rect x="2273" y="643.8" width="7.3" height="9.3"/>
		<rect x="2273" y="658.8" width="7.3" height="11"/>
		<rect x="2273" y="627.8" width="7.3" height="10.3"/>
		<rect x="2273" y="612.8" width="7.3" height="9.3"/>
		<rect x="2273" y="813" width="7.3" height="10.3"/>
		<rect x="2273" y="844" width="7.3" height="10.9"/>
		<rect x="2273" y="597.6" width="7.3" height="9.4"/>
		<rect x="2273" y="782.9" width="7.3" height="9.4"/>
		<rect x="2273" y="798" width="7.3" height="9.3"/>
	</g>
	<g>
		<rect x="1783.2" y="1225.7" width="9.3" height="7.3"/>
		<rect x="1859.6" y="1225.7" width="10.3" height="7.3"/>
		<rect x="1844.6" y="1225.7" width="9.3" height="7.3"/>
		<rect x="1813.4" y="1225.7" width="9.3" height="7.3"/>
		<rect x="1798.2" y="1225.7" width="9.4" height="7.3"/>
		<rect x="1828.4" y="1225.7" width="10.5" height="7.3"/>
		<rect x="1905.7" y="1225.7" width="9.3" height="7.3"/>
		<rect x="2215.5" y="1225.7" width="9.3" height="7.3"/>
		<rect x="1890.6" y="1225.7" width="9.4" height="7.3"/>
		<rect x="1875.6" y="1225.7" width="9.3" height="7.3"/>
		<rect x="1920.7" y="1225.7" width="11" height="7.3"/>
		<rect x="2122.6" y="1225.7" width="9.3" height="7.3"/>
		<rect x="1767.2" y="1225.7" width="10.3" height="7.3"/>
		<rect x="1937.5" y="1225.7" width="9.3" height="7.3"/>
		<rect x="1752.2" y="1225.7" width="9.3" height="7.3"/>
		<rect x="2107.5" y="1225.7" width="9.4" height="7.3"/>
		<rect x="2076.5" y="1225.7" width="10.3" height="7.3"/>
		<rect x="2030.2" y="1225.7" width="9.3" height="7.3"/>
		<rect x="2045.2" y="1225.7" width="10.5" height="7.3"/>
		<rect x="2061.5" y="1225.7" width="9.3" height="7.3"/>
		<rect x="2092.5" y="1225.7" width="9.3" height="7.3"/>
		<rect x="1705.3" y="1225.7" width="9.3" height="7.3"/>
		<rect x="1630.3" y="1225.7" width="8.1" height="7.3"/>
		<rect x="1690.2" y="1225.7" width="9.4" height="7.3"/>
		<rect x="1659.2" y="1225.7" width="10.3" height="7.3"/>
		<rect x="1644.2" y="1225.7" width="9.3" height="7.3"/>
		<rect x="1675.2" y="1225.7" width="9.3" height="7.3"/>
		<rect x="1720.3" y="1225.7" width="10.5" height="7.3"/>
		<rect x="1617.9" y="1225.7" width="6.7" height="7.3"/>
		<rect x="2230.5" y="1225.7" width="13.2" height="7.3"/>
		<rect x="1736.5" y="1225.7" width="9.9" height="7.3"/>
		<rect x="1969.1" y="1225.7" width="9.3" height="7.3"/>
		<rect x="2154.4" y="1225.7" width="9.3" height="7.3"/>
		<rect x="2137.6" y="1225.7" width="11" height="7.3"/>
		<rect x="2169.4" y="1225.7" width="10.3" height="7.3"/>
		<rect x="2185.4" y="1225.7" width="9.3" height="7.3"/>
		<rect x="1984.1" y="1225.7" width="10.3" height="7.3"/>
		<rect x="1952.5" y="1225.7" width="10.9" height="7.3"/>
		<rect x="2200.4" y="1225.7" width="9.4" height="7.3"/>
		<rect x="2015.1" y="1225.7" width="9.4" height="7.3"/>
		<rect x="2000.1" y="1225.7" width="9.3" height="7.3"/>
	</g>
	<g>
		<rect x="1151.7" y="1225.7" width="9.3" height="7.3"/>
		<rect x="1228.1" y="1225.7" width="10.3" height="7.3"/>
		<rect x="1213.1" y="1225.7" width="9.3" height="7.3"/>
		<rect x="1181.8" y="1225.7" width="9.3" height="7.3"/>
		<rect x="1166.7" y="1225.7" width="9.4" height="7.3"/>
		<rect x="1196.8" y="1225.7" width="10.5" height="7.3"/>
		<rect x="1274.2" y="1225.7" width="9.3" height="7.3"/>
		<rect x="1583.9" y="1225.7" width="9.3" height="7.3"/>
		<rect x="1259.1" y="1225.7" width="9.4" height="7.3"/>
		<rect x="1244.1" y="1225.7" width="9.3" height="7.3"/>
		<rect x="1289.2" y="1225.7" width="11" height="7.3"/>
		<rect x="1491.1" y="1225.7" width="9.3" height="7.3"/>
		<rect x="1135.7" y="1225.7" width="10.3" height="7.3"/>
		<rect x="1305.9" y="1225.7" width="9.3" height="7.3"/>
		<rect x="1120.7" y="1225.7" width="9.3" height="7.3"/>
		<rect x="1475.9" y="1225.7" width="9.4" height="7.3"/>
		<rect x="1444.9" y="1225.7" width="10.3" height="7.3"/>
		<rect x="1398.7" y="1225.7" width="9.3" height="7.3"/>
		<rect x="1413.7" y="1225.7" width="10.5" height="7.3"/>
		<rect x="1429.9" y="1225.7" width="9.3" height="7.3"/>
		<rect x="1460.9" y="1225.7" width="9.3" height="7.3"/>
		<rect x="1073.8" y="1225.7" width="9.3" height="7.3"/>
		<rect x="998.8" y="1225.7" width="8.1" height="7.3"/>
		<rect x="1058.6" y="1225.7" width="9.4" height="7.3"/>
		<rect x="1027.6" y="1225.7" width="10.3" height="7.3"/>
		<rect x="1012.6" y="1225.7" width="9.3" height="7.3"/>
		<rect x="1043.6" y="1225.7" width="9.3" height="7.3"/>
		<rect x="1088.8" y="1225.7" width="10.5" height="7.3"/>
		<rect x="986.3" y="1225.7" width="6.7" height="7.3"/>
		<rect x="1598.9" y="1225.7" width="13.2" height="7.3"/>
		<rect x="1105" y="1225.7" width="9.9" height="7.3"/>
		<rect x="1337.6" y="1225.7" width="9.3" height="7.3"/>
		<rect x="1522.8" y="1225.7" width="9.3" height="7.3"/>
		<rect x="1506.1" y="1225.7" width="11" height="7.3"/>
		<rect x="1537.8" y="1225.7" width="10.3" height="7.3"/>
		<rect x="1553.8" y="1225.7" width="9.3" height="7.3"/>
		<rect x="1352.6" y="1225.7" width="10.3" height="7.3"/>
		<rect x="1320.9" y="1225.7" width="10.9" height="7.3"/>
		<rect x="1568.8" y="1225.7" width="9.4" height="7.3"/>
		<rect x="1383.6" y="1225.7" width="9.4" height="7.3"/>
		<rect x="1368.6" y="1225.7" width="9.3" height="7.3"/>
	</g>
	<g>
		<rect x="616.7" y="1225.7" width="10.3" height="7.3"/>
		<rect x="601.7" y="1225.7" width="9.3" height="7.3"/>
		<rect x="570.5" y="1225.7" width="9.3" height="7.3"/>
		<rect x="555.4" y="1225.7" width="9.4" height="7.3"/>
		<rect x="585.5" y="1225.7" width="10.5" height="7.3"/>
		<rect x="662.9" y="1225.7" width="9.3" height="7.3"/>
		<rect x="972.6" y="1225.7" width="9.3" height="7.3"/>
		<rect x="647.7" y="1225.7" width="9.4" height="7.3"/>
		<rect x="632.7" y="1225.7" width="9.3" height="7.3"/>
		<rect x="677.9" y="1225.7" width="11" height="7.3"/>
		<rect x="879.7" y="1225.7" width="9.3" height="7.3"/>
		<rect x="694.6" y="1225.7" width="9.3" height="7.3"/>
		<rect x="864.6" y="1225.7" width="9.4" height="7.3"/>
		<rect x="833.6" y="1225.7" width="10.3" height="7.3"/>
		<rect x="787.4" y="1225.7" width="9.3" height="7.3"/>
		<rect x="802.4" y="1225.7" width="10.5" height="7.3"/>
		<rect x="818.6" y="1225.7" width="9.3" height="7.3"/>
		<rect x="849.6" y="1225.7" width="9.3" height="7.3"/>
		<rect x="987.6" y="1225.7" width="13.2" height="7.3"/>
		<rect x="726.2" y="1225.7" width="9.3" height="7.3"/>
		<rect x="911.5" y="1225.7" width="9.3" height="7.3"/>
		<rect x="894.7" y="1225.7" width="11" height="7.3"/>
		<rect x="926.5" y="1225.7" width="10.3" height="7.3"/>
		<rect x="942.5" y="1225.7" width="9.3" height="7.3"/>
		<rect x="741.2" y="1225.7" width="10.3" height="7.3"/>
		<rect x="709.6" y="1225.7" width="10.9" height="7.3"/>
		<rect x="957.5" y="1225.7" width="9.4" height="7.3"/>
		<rect x="772.2" y="1225.7" width="9.4" height="7.3"/>
		<rect x="757.2" y="1225.7" width="9.3" height="7.3"/>
	</g>
</g>
<g id="dotted_line_1_">
	<rect x="622" y="1272" width="207" height="4.7"/>
	<rect x="825.5" y="1272" width="4.7" height="17.4"/>
	<g>
		<rect x="825.5" y="1285" width="55.1" height="4.7"/>
		<rect x="1014.7" y="1286.1" width="55.1" height="4.7"/>
		<rect x="880.6" y="1276.7" fill="none" stroke="#000000" stroke-width="6" stroke-miterlimit="10" width="134" height="21.3"/>
	</g>
	<g>
		<rect x="1109.6" y="1285" width="155.1" height="4.7"/>
		<rect x="1398.7" y="1286.1" width="145.1" height="4.7"/>
		<rect x="1264.7" y="1276.7" fill="none" stroke="#000000" stroke-width="6" stroke-miterlimit="10" width="134" height="21.3"/>
	</g>
	<g>
		<rect x="1591.4" y="1285.8" width="85.1" height="4.7"/>
		<rect x="1810.5" y="1286.8" width="65.1" height="4.7"/>
		<rect x="1676.5" y="1277.4" fill="none" stroke="#000000" stroke-width="6" stroke-miterlimit="10" width="134" height="21.3"/>
	</g>
	<g>
		<rect x="1871.4" y="1286.8" width="125.1" height="4.7"/>
		<rect x="2130.5" y="1287.9" width="125.1" height="4.7"/>
		<rect x="1996.5" y="1278.5" fill="none" stroke="#000000" stroke-width="6" stroke-miterlimit="10" width="134" height="21.3"/>
	</g>
</g>
<g id="room_x5F_One" display="none">
	<polyline display="inline" fill="none" stroke="#874898" stroke-width="10" stroke-miterlimit="10" points="781.1,499 620.7,499 
		620.7,1254.5 1085,1254.5 1085,499 953.6,499 	"/>
	<g display="inline">
		<rect x="771.1" y="428.9" width="10" height="67.9"/>
		<rect x="953.6" y="428.1" width="10" height="68.7"/>
		<path fill="none" stroke="#000000" stroke-width="9" stroke-miterlimit="10" d="M773.7,432.6c30.9-20.1,63.9-8.7,85.2,14
			c11,10.8,6.3,29.4,6.4,58.9"/>
		<path fill="none" stroke="#000000" stroke-width="9" stroke-miterlimit="10" d="M961.3,431.6c-30.9-20.1-64.2-10.5-85.4,12.1
			c-12.9,10.3-10.1,32-11.4,61.8"/>
		<rect x="771.1" y="429.4" fill="#874898" width="10" height="76.3"/>
		<rect x="953.6" y="428.3" fill="#874898" width="10" height="77.4"/>
		<path fill="#7E318E" d="M771.1,429.4C771.1,429.4,771.1,429.4,771.1,429.4l5.9,7c0,0,0-0.1,0.1-0.1c24.7-15.7,51.1-11.5,68.9,6
			c19.3,18.9,15.6,37.8,15,62.9c0,0-0.1,0-0.1,0.1h9.7c1.6-42.1-0.4-54.5-16.8-70.2C833,412.8,794.9,410,771.1,429.4z"/>
		<path fill="#7E318E" d="M963.6,428.3C963.6,428.3,963.6,428.3,963.6,428.3l-5.9,7c0,0,0-0.1-0.1-0.1c-24.7-15.7-51.1-11.5-68.9,6
			c-19.3,18.9-18.6,38.8-18,63.9c0,0,0.1,0,0.1,0.1l-9.8,0c0.5-43.5,3.6-55.5,19.9-71.2C901.8,411.7,939.9,408.9,963.6,428.3z"/>
	</g>
	<rect x="554" y="432.7" display="inline" fill="#80458F" width="72" height="137.8"/>
	<rect x="553" y="1199.9" display="inline" fill="#80458F" width="72" height="99.1"/>
</g>
<g id="room_x5F_two" display="none">
	<polyline display="inline" fill="none" stroke="#874898" stroke-width="10" stroke-miterlimit="10" points="1700.1,498.4 
		1082.8,498.4 1082.8,1254.7 2008.4,1254.7 2008.4,498.4 1872.6,498.4 	"/>
	<g display="inline">
		<rect x="1690.1" y="426.8" width="10" height="67.9"/>
		<rect x="1872.6" y="426.1" width="10" height="68.7"/>
		<path fill="none" stroke="#000000" stroke-width="9" stroke-miterlimit="10" d="M1692.7,430.6c30.9-20.1,63.9-8.7,85.2,14
			c11,10.8,6.3,29.4,6.4,58.9"/>
		<path fill="none" stroke="#000000" stroke-width="9" stroke-miterlimit="10" d="M1880.3,429.6c-30.9-20.1-64.2-10.5-85.4,12.1
			c-12.9,10.3-10.1,32-11.4,61.8"/>
		<rect x="1690.1" y="427.3" fill="#874898" width="10" height="76.3"/>
		<rect x="1872.6" y="426.3" fill="#874898" width="10" height="77.4"/>
		<path fill="#7E318E" d="M1690.2,427.3C1690.2,427.3,1690.2,427.3,1690.2,427.3l5.9,7c0,0,0-0.1,0.1-0.1
			c24.7-15.7,51.1-11.5,68.9,6c19.3,18.9,15.6,37.8,15,62.9c0,0-0.1,0-0.1,0.1h9.7c1.6-42.1-0.4-54.5-16.8-70.2
			C1752,410.7,1713.9,408,1690.2,427.3z"/>
		<path fill="#7E318E" d="M1882.6,426.3C1882.6,426.3,1882.6,426.3,1882.6,426.3l-5.9,7c0,0,0-0.1-0.1-0.1
			c-24.7-15.7-51.1-11.5-68.9,6c-19.3,18.9-18.6,38.8-18,63.9c0,0,0.1,0,0.1,0.1l-9.8,0c0.5-43.5,3.6-55.5,19.9-71.2
			C1820.8,409.7,1858.9,406.9,1882.6,426.3z"/>
	</g>
	<rect x="1527" y="499.6" display="inline" fill="#80458F" width="72" height="72"/>
	<rect x="1527" y="1183.1" display="inline" fill="#80458F" width="72" height="126"/>
</g>
<g id="room_x5F_three" display="none">
	<polyline display="inline" fill="none" stroke="#874898" stroke-width="10" stroke-miterlimit="10" points="2069.5,498.1 
		2010.8,498.2 2010.8,1254.5 2311.1,1254.5 2311.1,498.2 2242,498.1 	"/>
	<g display="inline">
		<rect x="2059.5" y="426.8" fill="#874898" width="10" height="76.3"/>
		<rect x="2242" y="425.8" fill="#874898" width="10" height="77.4"/>
		<path fill="#7E318E" d="M2059.6,426.8C2059.6,426.8,2059.6,426.8,2059.6,426.8l5.9,7c0,0,0-0.1,0.1-0.1
			c24.7-15.7,51.1-11.5,68.9,6c19.3,18.9,15.6,37.8,15,62.9c0,0-0.1,0-0.1,0.1h9.7c1.6-42.1-0.4-54.5-16.8-70.2
			C2121.4,410.2,2083.3,407.5,2059.6,426.8z"/>
		<path fill="#7E318E" d="M2252,425.8C2252,425.8,2252,425.8,2252,425.8l-5.9,7c0,0,0-0.1-0.1-0.1c-24.7-15.7-51.1-11.5-68.9,6
			c-19.3,18.9-18.6,38.8-18,63.9c0,0,0.1,0,0.1,0.1l-9.8,0c0.5-43.5,3.6-55.5,19.9-71.2C2190.2,409.2,2228.3,406.4,2252,425.8z"/>
	</g>
	<g display="inline">
		<rect x="2273" y="1014.9" fill="#874898" width="7.3" height="9.3"/>
		<rect x="2273" y="937.5" fill="#874898" width="7.3" height="10.3"/>
		<rect x="2273" y="953.5" fill="#874898" width="7.3" height="9.3"/>
		<rect x="2273" y="984.8" fill="#874898" width="7.3" height="9.3"/>
		<rect x="2273" y="999.8" fill="#874898" width="7.3" height="9.4"/>
		<rect x="2273" y="968.5" fill="#874898" width="7.3" height="10.5"/>
		<rect x="2273" y="892.4" fill="#874898" width="7.3" height="9.3"/>
		<rect x="2273" y="582.6" fill="#874898" width="7.3" height="9.3"/>
		<rect x="2273" y="907.4" fill="#874898" width="7.3" height="9.4"/>
		<rect x="2273" y="922.5" fill="#874898" width="7.3" height="9.3"/>
		<rect x="2273" y="875.6" fill="#874898" width="7.3" height="11"/>
		<rect x="2273" y="675.5" fill="#874898" width="7.3" height="9.3"/>
		<rect x="2273" y="1029.9" fill="#874898" width="7.3" height="10.3"/>
		<rect x="2273" y="860.6" fill="#874898" width="7.3" height="9.3"/>
		<rect x="2273" y="1045.9" fill="#874898" width="7.3" height="9.3"/>
		<rect x="2273" y="690.5" fill="#874898" width="7.3" height="9.4"/>
		<rect x="2273" y="720.6" fill="#874898" width="7.3" height="10.3"/>
		<rect x="2273" y="767.9" fill="#874898" width="7.3" height="9.3"/>
		<rect x="2273" y="751.6" fill="#874898" width="7.3" height="10.5"/>
		<rect x="2273" y="736.6" fill="#874898" width="7.3" height="9.3"/>
		<rect x="2273" y="705.6" fill="#874898" width="7.3" height="9.3"/>
		<rect x="2273" y="1092.8" fill="#874898" width="7.3" height="9.3"/>
		<rect x="2273" y="1168.9" fill="#874898" width="7.3" height="8.1"/>
		<rect x="2273" y="1107.8" fill="#874898" width="7.3" height="9.4"/>
		<rect x="2273" y="1137.9" fill="#874898" width="7.3" height="10.3"/>
		<rect x="2273" y="1153.9" fill="#874898" width="7.3" height="9.3"/>
		<rect x="2273" y="1122.9" fill="#874898" width="7.3" height="9.3"/>
		<rect x="2273" y="1076.6" fill="#874898" width="7.3" height="10.5"/>
		<rect x="2273" y="1182.8" fill="#874898" width="7.3" height="6.7"/>
		<rect x="2273" y="563.7" fill="#874898" width="7.3" height="13.2"/>
		<rect x="2273" y="1060.9" fill="#874898" width="7.3" height="9.9"/>
		<rect x="2273" y="829" fill="#874898" width="7.3" height="9.3"/>
		<rect x="2273" y="643.8" fill="#874898" width="7.3" height="9.3"/>
		<rect x="2273" y="658.8" fill="#874898" width="7.3" height="11"/>
		<rect x="2273" y="627.8" fill="#874898" width="7.3" height="10.3"/>
		<rect x="2273" y="612.8" fill="#874898" width="7.3" height="9.3"/>
		<rect x="2273" y="813" fill="#874898" width="7.3" height="10.3"/>
		<rect x="2273" y="844" fill="#874898" width="7.3" height="10.9"/>
		<rect x="2273" y="597.6" fill="#874898" width="7.3" height="9.4"/>
		<rect x="2273" y="782.9" fill="#874898" width="7.3" height="9.4"/>
		<rect x="2273" y="798" fill="#874898" width="7.3" height="9.3"/>
	</g>
	<rect x="2241.8" y="493.2" display="inline" fill="#80458F" width="74.3" height="72.8"/>
	<rect x="2242.7" y="1186.7" display="inline" fill="#80458F" width="73.4" height="128.2"/>
</g>
</svg>
