<?xml version="1.0" encoding="utf-8"?>
<!-- Generator: Adobe Illustrator 22.0.1, SVG Export Plug-In . SVG Version: 6.00 Build 0)  -->
<svg version="1.0" id="图层_1" xmlns="http://www.w3.org/2000/svg" xmlns:xlink="http://www.w3.org/1999/xlink" x="0px" y="0px"
	 viewBox="0 0 117.3 118.5" style="enable-background:new 0 0 117.3 118.5;" xml:space="preserve">
<g>
	<path style="fill:#a0acb8;" d="M56.7,89.8c-13.3,0-24.6-11.2-24.6-24.6c0-13.3,11.2-24.6,24.6-24.6c13.4,0,24.6,11.2,24.6,24.6
		C81.3,78.6,70,89.8,56.7,89.8L56.7,89.8z M56.7,47.7c-9.8,0-17.6,7.7-17.6,17.6c0,9.8,7.7,17.6,17.6,17.6c9.8,0,17.6-7.7,17.6-17.6
		C74.3,55.4,66.5,47.7,56.7,47.7L56.7,47.7z M56.7,47.7"/>
	<path style="fill:#a0acb8;" d="M49.7,26.6c0,2.5,1.3,4.8,3.5,6.1c2.2,1.3,4.9,1.3,7,0c2.2-1.3,3.5-3.6,3.5-6.1c0-3.9-3.1-7-7-7
		C52.8,19.6,49.7,22.7,49.7,26.6L49.7,26.6z M49.7,26.6"/>
	<path style="fill:#a0acb8;" d="M82.7,100.4c16.2-9.1,26.7-26,26.7-45.7C109.4,25.9,85.5,2,56.7,2C27.9,2,4,25.9,4,54.7
		c0,19.7,10.5,36.5,26.7,45.7c-1.4,3.5-2.1,7-2.1,10.5H14.5v7h84.3v-7H84.8C84.8,107.4,84.1,103.9,82.7,100.4L82.7,100.4z M11,54.7
		C11,29.4,31.4,9,56.7,9s45.7,20.4,45.7,45.7S82,100.4,56.7,100.4S11,80,11,54.7L11,54.7z M35.6,110.9c0-2.8,0.7-4.9,1.4-7
		c6.3,2.1,12.6,3.5,19.7,3.5s13.4-1.4,19.7-3.5c0.7,2.1,1.4,4.9,1.4,7H35.6z M35.6,110.9"/>
</g>
</svg>
